<svg xmlns="http://www.w3.org/2000/svg" viewBox="0 0 2500 2500"><defs><style>.cls-1{fill:#1321f1;}</style></defs><g id="Illustration"><path class="cls-1" d="M757.71,1458.74c-16.62,0-31.77-.11-46.92,0-11.51.11-19.72-3.87-19.62-16.7.09-12.64,8.62-16.49,19.72-17.23,10.25-.69,23.56,4.52,30-2.37,6.81-7.36,2.25-20.77,2.28-31.51.2-76.7-.18-153.4.38-230.1.1-13.07-2.63-19.51-16.93-17.39-6.29.93-12.85.27-19.27.07-9.95-.32-15.76-5.4-16.21-15.52-.49-10.83,5.7-16.36,15.78-17.89,3.87-.59,7.9-.13,11.86-.13,89.07,0,178.14-.22,267.21.24,12.72.06,15.56-2.48,12.72-15.65-21-97-40.9-194.28-61.62-291.36-3-13.9,1.3-21.45,14.32-26.08,120.1-42.71,243.67-58.47,370.64-48.53a874.42,874.42,0,0,1,225.36,48.11c17.43,6.19,19.49,10.63,15.67,28.88-20.41,97.65-40.49,195.37-61.29,292.93-2.14,10-.06,11.67,9.29,11.58,40.57-.39,81.15-.19,121.73-.16,74.92,0,139.84,44.43,165.51,113.1,26.21,70.1,6,146.27-52.11,196-1.09,1-2,2.11-5.42,5.74,16.4,0,30.31,0,44.23,0,5.45,0,10.88-.18,15.83,2.82,6.75,4.1,9.07,10.14,7.87,17.69-1.14,7.15-5.39,11.6-12.48,12.88a63.6,63.6,0,0,1-10.35.54c-29.08.35-29.08.33-29.08,30.06,0,78.68.28,157.36-.29,236-.09,12.52,3.53,16.87,15.78,15.38a87.76,87.76,0,0,1,20.74.19c10.11,1.18,16.43,6.8,15.89,17.71-.49,10-6.4,15.11-16.15,15.92-3.44.28-6.92.18-10.38.18q-455.74,0-911.5-.06c-92.54-.05-161.83-56.45-177.64-146.61-9.7-55.33,6-104.73,44-146.62C743.4,1474.07,749.74,1467.35,757.71,1458.74Zm460-33.91c139.56,0,279.12.34,418.68-.18,52.81-.2,93.61-24.51,119.71-69.82,54.4-94.43-12.53-209.93-121.78-211.1-56.41-.6-112.83.34-169.24.31q-335.53-.13-671.07-.76c-13.94,0-17.14,4-17,17.38q.88,124,0,247.94c-.09,12.64,2.6,16.63,16.11,16.57C934.63,1424.62,1076.17,1424.83,1217.71,1424.83ZM1281,1740.06q213,0,426.09.25c11.84,0,16-2.29,16-15.18q-.9-126.2-.06-252.38c.07-11.23-3.16-14.41-14.19-14.13-28.68.7-57.4.23-86.1.23q-374.87,0-749.74-.08c-50.39,0-92.09,18-121.51,59.19-32.33,45.29-36.81,94.74-11.58,144.37,25.64,50.45,68.35,77.33,125.44,77.55C1003.83,1740.42,1142.39,1740.06,1281,1740.06ZM1250.13,1110c66.8,0,133.6-.25,200.39.26,10.56.08,14.17-3.13,16.27-13.41q28.14-137.91,57.64-275.54c2.61-12.14.37-16.83-11.93-20.72q-262.63-83.13-525,0c-12.32,3.91-14.61,8.6-12,20.72q29.67,137.57,58,275.42c2,9.94,5.56,13.63,16.31,13.54C1116.54,1109.71,1183.34,1110,1250.13,1110Z"/><path class="cls-1" d="M1287.11,1267.8q186.21,0,372.42,0c4.93,0,10.06-.43,14.73.78,7.94,2.06,12.49,7.68,12.54,16.24s-4.53,14.13-12.53,16.14c-4.69,1.17-9.8.87-14.72.87q-373.9.06-747.8,0a118.36,118.36,0,0,1-13.33-.41c-9.18-1-14-6.33-14.5-15.68s4.49-15.11,13.07-17.13c5.18-1.23,10.8-.83,16.22-.83Q1100.15,1267.77,1287.11,1267.8Z"/><path class="cls-1" d="M1180.25,1232.15q-170.65,0-341.3,0c-5.38,0-10.89.9-16-1.81-7.44-3.92-11-10.09-9.53-18.3,1.3-7.49,6-12.45,13.84-13.33a147.37,147.37,0,0,1,16.29-.54q337.6,0,675.19,0c2.47,0,5,.08,7.42,0,11.45-.34,20.15,4.14,20.51,16.27.38,13-8.63,17.75-20.64,17.75H1180.25Z"/><path class="cls-1" d="M1180.05,1338.06q169.15,0,338.32,0c4.45,0,8.92-.17,13.34.22,9.35.83,14.42,6.87,15,15.51.66,9.66-5,15.83-14.46,17.64-4.3.82-8.87.32-13.32.32q-339.06,0-678.12,0c-4.45,0-9,.51-13.31-.39-9.35-2-14.91-7.88-14.25-17.8.61-9.09,6-14.31,15.12-15.26a114.25,114.25,0,0,1,11.86-.19Z"/><path class="cls-1" d="M1215.72,1582.63q186.21,0,372.41,0c5.41,0,11-.34,16.17,1,8.67,2.31,12.93,8.58,12.06,17.85-.81,8.6-5.66,13.5-14,14.59a103.83,103.83,0,0,1-13.33.38q-373.14,0-746.29,0c-21.33,0-29-4.36-29.38-16.52-.37-12.63,7.81-17.38,30-17.38Z"/><path class="cls-1" d="M1303.25,1513h354.62c4.45,0,8.92-.22,13.35.15,9.1.78,14.65,5.88,15.45,15,.86,9.89-4.65,16-13.81,18.27-4.2,1.06-8.85.47-13.29.47q-356.85,0-713.69,0c-4.45,0-9,.46-13.31-.47-9.41-2-14.81-8.29-14-18,.75-8.76,5.74-14.61,15.22-15.14,4.93-.28,9.88-.24,14.83-.24Z"/><path class="cls-1" d="M1301.84,1686.7H947.17c-4.94,0-10,.35-14.81-.38-9.15-1.38-14-7.52-13.93-16.43s4.68-15.08,13.91-16.46c4.37-.64,8.89-.28,13.34-.28h713.78c3.46,0,6.93-.06,10.39,0,10.71.31,16.79,6.11,16.77,16.57s-6.26,16.21-16.76,16.88c-3.95.25-7.92.08-11.87.08Z"/><path class="cls-1" d="M1372,936c0,10.38,0,20.77,0,31.15,0,12.65-6.3,19.28-19.08,19.34-12.36,0-24.76.6-37.07-.21-10.73-.7-15.44,2.36-14.52,13.93.94,11.79.35,23.71.18,35.57-.23,15.93-5.33,21-21.59,21.13-19.77.18-39.55.14-59.32,0-17.49-.13-22.43-5.29-22.64-23.33-.12-10.38-.94-20.87.2-31.12,1.51-13.71-4.25-17.28-16.85-16.15-10.79,1-21.74.39-32.61.15-15.5-.34-20.65-5.28-20.8-20.34-.21-21.26.11-42.52-.09-63.78-.12-13,6.32-19.14,18.94-19.27,13.35-.14,26.71-.43,40,0,8.27.27,11.49-2.66,11.17-11.08-.48-12.83-.32-25.71,0-38.55.37-15.36,5.47-20.43,20.61-20.55,21.26-.19,42.52.07,63.78-.09,13-.1,19.1,6.38,19.18,19,.08,13.35.42,26.71-.09,40-.31,8.23,2.29,11.7,10.89,11.28,11.34-.56,22.74-.2,34.11-.14,21.56.1,25.49,4.15,25.58,26.29C1372,918.19,1372,927.09,1372,936Zm-65,16.69c32.47,0,32.12,0,31.53-24.4-.19-8.21-2.46-11.54-11-11.08-11.34.6-22.74.19-34.11.14-20.61-.09-25.65-5-25.78-25-.08-10.39-.83-20.86.2-31.14,1.21-12.06-3.47-16.23-14.93-14.56a33.92,33.92,0,0,1-8.89,0c-9.12-1.13-12.19,2.69-11.72,11.76.65,12.82.17,25.71.11,38.56-.06,13.27-6.71,20.17-20,20.33-9.39.1-18.79,0-28.19,0-23.69,0-23.33,0-22.76,24.43.19,8.27,2.56,11.47,11.06,11,11.84-.6,23.74-.21,35.6-.13,19.15.12,24.17,5.26,24.33,24.88.08,9.89,1,19.9-.2,29.65-1.64,13.57,3.72,16.9,16.51,16.21,18.83-1,18.87-.22,18.88-19.35V992.18C1267.57,952.68,1267.57,952.68,1307,952.68Z"/></g></svg>