<svg id="Layer_1" data-name="Layer 1" xmlns="http://www.w3.org/2000/svg" viewBox="0 0 595.28 841.89"><defs><style>.cls-1{fill:#1ba2f1;}.cls-2{fill:#0d8dce;}</style></defs><path class="cls-1" d="M65.73,381c0,2.45.36,5-.07,7.34-1,5.75-4.09,10.47-8.13,14.67-4.44,4.61-8.92,9.21-13,14.14-8.73,10.58-10.38,22.83-7.66,35.92.56,2.72,1.48,5.37,1.95,8.1a11.31,11.31,0,0,1-.54,5.36c-4.65-5.53-6.85-12-7.89-18.54-1.39-8.87-2.18-18.14,3.77-25.84,5.23-6.76,11.21-12.95,17-19.31,1.77-2,3.86-3.65,5.79-5.48C61.63,392.93,65,387.83,65.73,381Z"/><path class="cls-1" d="M26,439.4c-8.75-6.43-9.47-15.56-1.87-22.23,4.95-4.35,10.59-7.93,16.31-11.56C30.33,414.62,21.7,424.15,26,439.4Z"/><path class="cls-1" d="M45.94,487.72a46.85,46.85,0,0,0-3.87-4.09c-6.6-5.56-6.43-11.17.61-16.21.89-.63,1.86-1.13,2.78-1.71,6.86-4.34,7.61-10.68,1.86-16.52a22.21,22.21,0,0,0-3.76-2.56l1.28-1.36c3,2.15,6.22,4,8.92,6.5,3.71,3.38,3.63,7.26,0,10.66a71.2,71.2,0,0,1-7.2,5.45c-6.14,4.38-6.9,10.42-2.06,16.11a22.14,22.14,0,0,1,2,3.41Z"/><path class="cls-1" d="M42.6,367.47a6.45,6.45,0,0,1-6.68-6.55,6.94,6.94,0,0,1,6.69-6.75,7,7,0,0,1,6.69,6.74A6.4,6.4,0,0,1,42.6,367.47Z"/><path class="cls-1" d="M43.09,399.5c0-8.33-.08-16.67.13-25,0-.84,1.76-1.92,2.89-2.28.49-.15,2.17,1.32,2.12,1.95-.69,7.67-1.55,15.32-2.5,23-.12.94-1.06,1.77-1.62,2.65Z"/><path class="cls-1" d="M52.87,366.56c8.43,3.37,8.18,8.11,5.81,16.42-1,3.69-4.23,6.78-7,9.89C54.27,384.1,55.15,375.45,52.87,366.56Z"/><path class="cls-1" d="M41.71,457.37V432.92H42v24.45Z"/><path class="cls-1" d="M119.71,421a16.61,16.61,0,0,1-6.23,4.07,24,24,0,0,1-15.66-.25A15.63,15.63,0,0,1,92.14,421a15,15,0,0,1-3.23-5.56,20.71,20.71,0,0,1-1-6.53,19.74,19.74,0,0,1,1.1-6.45,16.29,16.29,0,0,1,3.35-5.7,16.89,16.89,0,0,1,5.7-4.07,19.68,19.68,0,0,1,8.19-1.56,18.46,18.46,0,0,1,6.88,1.28,19.4,19.4,0,0,1,6.15,4.07l-5.87,5.73a10.16,10.16,0,0,0-3.65-2.31,11.31,11.31,0,0,0-3.51-.58,9.06,9.06,0,0,0-4.17.88,7.9,7.9,0,0,0-2.74,2.28,9.58,9.58,0,0,0-1.54,3.12,11.69,11.69,0,0,0,0,6.63,8.57,8.57,0,0,0,1.51,3,7.71,7.71,0,0,0,2.77,2.19,9.48,9.48,0,0,0,4.19.84,11.52,11.52,0,0,0,3.93-.79,10.73,10.73,0,0,0,4-2.65Z"/><path class="cls-1" d="M131.48,391.82v33.6h-8.7v-33.6Z"/><path class="cls-1" d="M154.29,401.73h8.28v23.69h-8.14l-.42-2.56a7.91,7.91,0,0,1-3.66,2.42,11.9,11.9,0,0,1-4.11.55,12,12,0,0,1-4.64-1.11,10.28,10.28,0,0,1-3.39-2.58,11.15,11.15,0,0,1-2.1-3.8,15.09,15.09,0,0,1-.72-4.74,14.17,14.17,0,0,1,.82-4.91,11.5,11.5,0,0,1,2.32-3.91,11.09,11.09,0,0,1,3.63-2.61,11.48,11.48,0,0,1,4.73-.95,10.06,10.06,0,0,1,4.28.81,6.28,6.28,0,0,1,2.65,2.26Zm-5.4,6.61a4.62,4.62,0,0,0-3.38,1.37,5.29,5.29,0,0,0-1.37,3.89,5.09,5.09,0,0,0,1.37,3.83,4.66,4.66,0,0,0,3.38,1.33,4.76,4.76,0,0,0,3.56-1.53,5,5,0,0,0,1-1.63,5.5,5.5,0,0,0,.35-2,5.6,5.6,0,0,0-1.25-3.84A4.59,4.59,0,0,0,148.89,408.34Z"/><path class="cls-1" d="M175.64,401.73l.52,2.61a5.7,5.7,0,0,1,2.49-2.45,7.38,7.38,0,0,1,3.23-.72,9.43,9.43,0,0,1,3.47.63,7.53,7.53,0,0,1,2.77,1.88l-3.54,6.38a7.2,7.2,0,0,0-2-1.12,6.57,6.57,0,0,0-2-.28,4.3,4.3,0,0,0-2.9,1,4.23,4.23,0,0,0-1.19,3.39v12.34h-8.8V401.73Z"/><path class="cls-1" d="M189.79,395.63a4,4,0,0,1,.44-1.9,4.5,4.5,0,0,1,1.14-1.4,5.11,5.11,0,0,1,1.58-.84,6.23,6.23,0,0,1,1.82-.28,6.16,6.16,0,0,1,1.81.28,5,5,0,0,1,1.59.84,4.29,4.29,0,0,1,0,6.61,5,5,0,0,1-1.59.84,6.15,6.15,0,0,1-1.81.27,6.22,6.22,0,0,1-1.82-.27,5.11,5.11,0,0,1-1.58-.84,4.5,4.5,0,0,1-1.14-1.4A4.08,4.08,0,0,1,189.79,395.63Zm.56,29.79V402.1h8.84v23.32Z"/><path class="cls-1" d="M213.34,408.34,215.9,416l2.37-7.68,2.56-6.61h9.35l-9.77,23.83h-8.8l-10.19-23.83h9.36Z"/><path class="cls-1" d="M232.09,395.63a4,4,0,0,1,.44-1.9,4.5,4.5,0,0,1,1.14-1.4,5,5,0,0,1,1.58-.84,6.23,6.23,0,0,1,1.82-.28,6.16,6.16,0,0,1,1.81.28,5,5,0,0,1,1.59.84,4.29,4.29,0,0,1,0,6.61,5,5,0,0,1-1.59.84,6.15,6.15,0,0,1-1.81.27,6.22,6.22,0,0,1-1.82-.27,5,5,0,0,1-1.58-.84,4.5,4.5,0,0,1-1.14-1.4A4.08,4.08,0,0,1,232.09,395.63Zm.56,29.79V402.1h8.84v23.32Z"/><path class="cls-1" d="M255.64,408.34l2.55,7.68,2.38-7.68,2.56-6.61h9.35l-9.77,23.83h-8.8l-10.19-23.83h9.36Z"/><path class="cls-1" d="M286.81,401.17a15.82,15.82,0,0,1,5.73,1,11.08,11.08,0,0,1,4.32,2.91,10.09,10.09,0,0,1,2.35,4.68,14.8,14.8,0,0,1-.11,6.3H282.53a3,3,0,0,0,.82,1.35,5.06,5.06,0,0,0,1.35.93,6.92,6.92,0,0,0,1.58.56,6.65,6.65,0,0,0,1.56.19,10.33,10.33,0,0,0,3.44-.52,8.8,8.8,0,0,0,2.61-1.39l4.32,4.84a13.48,13.48,0,0,1-4.95,3,18.23,18.23,0,0,1-5.84.93,20,20,0,0,1-5.31-.7,12.12,12.12,0,0,1-4.39-2.21,10.64,10.64,0,0,1-3-3.84,12.91,12.91,0,0,1-1.1-5.54,12.41,12.41,0,0,1,1.17-5.6,11.54,11.54,0,0,1,3-3.89,12.25,12.25,0,0,1,4.21-2.26A16.23,16.23,0,0,1,286.81,401.17Zm4.38,9.26a2.42,2.42,0,0,0-.65-1.58,3.88,3.88,0,0,0-1.52-1,5.94,5.94,0,0,0-2-.32,6.51,6.51,0,0,0-2,.3,4.26,4.26,0,0,0-1.62.95,2.66,2.66,0,0,0-.84,1.63Z"/><path class="cls-1" d="M343,405.41l-8.61,10.19h-1.68l-8.37-10.1v19.92h-9.4V391.86h9.91l8.84,11.36,8.8-11.36h9.91v33.56H343Z"/><path class="cls-1" d="M370.25,401.17a15.76,15.76,0,0,1,5.72,1,11.12,11.12,0,0,1,4.33,2.91,10.18,10.18,0,0,1,2.35,4.68,14.66,14.66,0,0,1-.12,6.3H366a2.92,2.92,0,0,0,.81,1.35,5.4,5.4,0,0,0,1.35.93,7.09,7.09,0,0,0,1.58.56,6.65,6.65,0,0,0,1.56.19,10.33,10.33,0,0,0,3.44-.52,8.56,8.56,0,0,0,2.61-1.39l4.33,4.84a13.52,13.52,0,0,1-5,3,18.18,18.18,0,0,1-5.84.93,19.89,19.89,0,0,1-5.3-.7,12.16,12.16,0,0,1-4.4-2.21,10.64,10.64,0,0,1-3-3.84,12.91,12.91,0,0,1-1.09-5.54,12.54,12.54,0,0,1,1.16-5.6,11.69,11.69,0,0,1,3-3.89,12.16,12.16,0,0,1,4.21-2.26A16.13,16.13,0,0,1,370.25,401.17Zm4.37,9.26a2.42,2.42,0,0,0-.65-1.58,3.84,3.84,0,0,0-1.51-1,6,6,0,0,0-2-.32,6.49,6.49,0,0,0-2,.3,4.38,4.38,0,0,0-1.63.95,2.72,2.72,0,0,0-.84,1.63Z"/><path class="cls-1" d="M403.47,391.86h8.84v33.56h-7.86l-.37-2.56a8.18,8.18,0,0,1-3.7,2.42,12,12,0,0,1-4.12.55c-3.51-.21-6.19-1.37-8.05-3.46s-2.79-5-2.79-8.77a14.78,14.78,0,0,1,.81-5,11.5,11.5,0,0,1,2.33-3.94,10.38,10.38,0,0,1,3.63-2.55,11.76,11.76,0,0,1,4.72-.91,10.8,10.8,0,0,1,4,.65,6.19,6.19,0,0,1,2.6,1.86Zm-4.56,16.48a4.59,4.59,0,0,0-3.37,1.37,5.25,5.25,0,0,0-1.38,3.89,5.06,5.06,0,0,0,1.38,3.83,4.64,4.64,0,0,0,3.37,1.33,4.47,4.47,0,0,0,2-.42,4.76,4.76,0,0,0,2.44-2.7,5.13,5.13,0,0,0,.33-1.81,7.2,7.2,0,0,0-.3-2.07,5.5,5.5,0,0,0-.91-1.77,4.37,4.37,0,0,0-1.49-1.21A4.45,4.45,0,0,0,398.91,408.34Z"/><path class="cls-1" d="M416.92,395.63a4,4,0,0,1,.44-1.9,4.5,4.5,0,0,1,1.14-1.4,5,5,0,0,1,1.58-.84,6.23,6.23,0,0,1,1.82-.28,6.16,6.16,0,0,1,1.81.28,5,5,0,0,1,1.59.84,4.29,4.29,0,0,1,0,6.61,5,5,0,0,1-1.59.84,6.15,6.15,0,0,1-1.81.27,6.22,6.22,0,0,1-1.82-.27,5,5,0,0,1-1.58-.84,4.5,4.5,0,0,1-1.14-1.4A4.08,4.08,0,0,1,416.92,395.63Zm.56,29.79V402.1h8.84v23.32Z"/><path class="cls-1" d="M447.63,425.42V412.34a5.2,5.2,0,0,0-.28-1.86,3.22,3.22,0,0,0-.74-1.21,2.83,2.83,0,0,0-1.07-.68,3.71,3.71,0,0,0-1.21-.21,4.14,4.14,0,0,0-2.86,1.12,4.4,4.4,0,0,0-1.24,3.44v12.48h-8.7V401.73h7.82l.37,2.61a8.39,8.39,0,0,1,3.56-2.49,10.83,10.83,0,0,1,3.89-.68,11.43,11.43,0,0,1,3.56.56,7.19,7.19,0,0,1,2.95,1.84,8.87,8.87,0,0,1,2,3.42,16.18,16.18,0,0,1,.75,5.3v13.13Z"/><path class="cls-1" d="M462.52,416.48a17.85,17.85,0,0,0,2.61,1.4,14.65,14.65,0,0,0,2.26.76,12.79,12.79,0,0,0,1.93.35c.59.07,1.13.11,1.63.14,1.58,0,2.37-.38,2.37-1.16s-.82-1.13-2.47-1.26a17.63,17.63,0,0,1-3.53-.46,10.77,10.77,0,0,1-3.29-1.33,7.71,7.71,0,0,1-2.42-2.37,6.53,6.53,0,0,1-.95-3.61,6.76,6.76,0,0,1,.93-3.63,7.07,7.07,0,0,1,2.47-2.39,11.46,11.46,0,0,1,3.49-1.33,19.18,19.18,0,0,1,4.05-.42A18.35,18.35,0,0,1,477,402a13.89,13.89,0,0,1,4.26,2.1l-3.73,5.25a8.87,8.87,0,0,0-2.74-1,14.08,14.08,0,0,0-3.21-.4,4.23,4.23,0,0,0-1.54.23.92.92,0,0,0-.56.94,1.07,1.07,0,0,0,.33.69,2.06,2.06,0,0,0,1.44.42,29.57,29.57,0,0,1,3.79.44,12,12,0,0,1,3.52,1.21,7.37,7.37,0,0,1,2.58,2.35,6.72,6.72,0,0,1,1,3.82,6.92,6.92,0,0,1-3.35,6.26,10.72,10.72,0,0,1-3.54,1.37,20,20,0,0,1-4.14.42,24.23,24.23,0,0,1-3.14-.21,26.07,26.07,0,0,1-3.12-.6,19.74,19.74,0,0,1-2.84-1,12.86,12.86,0,0,1-2.35-1.33Z"/><path class="cls-1" d="M485.28,395.63a3.92,3.92,0,0,1,.44-1.9,4.23,4.23,0,0,1,1.14-1.4,4.89,4.89,0,0,1,1.58-.84,6.23,6.23,0,0,1,1.82-.28,6.16,6.16,0,0,1,1.81.28,4.89,4.89,0,0,1,1.58.84,4.06,4.06,0,0,1,1.12,1.4,4.15,4.15,0,0,1,.42,1.9,4.19,4.19,0,0,1-.42,1.91,4.06,4.06,0,0,1-1.12,1.4,4.89,4.89,0,0,1-1.58.84,6.15,6.15,0,0,1-1.81.27,6.22,6.22,0,0,1-1.82-.27,4.89,4.89,0,0,1-1.58-.84,4.23,4.23,0,0,1-1.14-1.4A4,4,0,0,1,485.28,395.63Zm.56,29.79V402.1h8.84v23.32Z"/><path class="cls-1" d="M507.19,427.09a5.28,5.28,0,0,0,.33,2.23,3.52,3.52,0,0,0,1,1.4,3.59,3.59,0,0,0,1.44.7,7.84,7.84,0,0,0,1.7.18,5.58,5.58,0,0,0,3.05-.83,2.83,2.83,0,0,0,1.33-2.56,3.07,3.07,0,0,0-.94-2.24,4.69,4.69,0,0,0-3.35-.93,16.89,16.89,0,0,1-5.42-.83,11.84,11.84,0,0,1-4.16-2.4,10.52,10.52,0,0,1-2.65-3.77,12.5,12.5,0,0,1-.94-5,12,12,0,0,1,1-5,11.47,11.47,0,0,1,2.79-3.82,12.32,12.32,0,0,1,4.19-2.42,15.6,15.6,0,0,1,5.16-.84,14.38,14.38,0,0,1,4.89.89c.43-.53.87-1.07,1.3-1.63s.86-1.1,1.26-1.63l6.37,4.56-3.07,3.63a8.72,8.72,0,0,1,1.82,3.14,9.16,9.16,0,0,1,.42,3.24,9.41,9.41,0,0,1-1.14,4.32,10.2,10.2,0,0,1-3.19,3.54,10.74,10.74,0,0,1,2.56,2,9,9,0,0,1,1.4,2,6.73,6.73,0,0,1,.58,1.79,11,11,0,0,1,.11,1.33,9.71,9.71,0,0,1-1.14,4.88,9.54,9.54,0,0,1-3,3.26,13,13,0,0,1-4.31,1.82,21.92,21.92,0,0,1-4.93.55,18.32,18.32,0,0,1-5.63-.79,10.68,10.68,0,0,1-4.09-2.28,9,9,0,0,1-2.42-3.65,11.88,11.88,0,0,1-.61-4.91Zm4.56-18.89a4.62,4.62,0,0,0-3.3,1.23,4.78,4.78,0,0,0-1.3,3.65,4.47,4.47,0,0,0,1.3,3.42,4.59,4.59,0,0,0,3.3,1.24,5.36,5.36,0,0,0,1.7-.28,4,4,0,0,0,1.42-.84,4.12,4.12,0,0,0,1-1.44,5.36,5.36,0,0,0,.37-2.1,5.23,5.23,0,0,0-.35-1.88,4.94,4.94,0,0,0-.93-1.56,4.68,4.68,0,0,0-1.39-1.05A4.13,4.13,0,0,0,511.75,408.2Z"/><path class="cls-1" d="M538.23,391.86v12.43a7.77,7.77,0,0,1,2.75-2.35,8.13,8.13,0,0,1,3.58-.72,9.66,9.66,0,0,1,3.44.63,8.07,8.07,0,0,1,3,1.95,9.64,9.64,0,0,1,2.1,3.42,14.59,14.59,0,0,1,.79,5.07v13.13h-8.8V412.34a3.71,3.71,0,0,0-1-2.77,3.44,3.44,0,0,0-2.24-.72,3.83,3.83,0,0,0-2.46.95,3.89,3.89,0,0,0-1.21,3.1v12.52h-8.85V391.86Z"/><path class="cls-1" d="M569.55,395v6.84h5.35v6.79h-5.4v7.73a2.32,2.32,0,0,0,.7,1.79,2.54,2.54,0,0,0,1.68.53,5.08,5.08,0,0,0,1.35-.2,3.58,3.58,0,0,0,1.21-.63l1.95,6.51a11.27,11.27,0,0,1-3.28,1.23,17.13,17.13,0,0,1-3.56.35,12.41,12.41,0,0,1-3.37-.44,6.65,6.65,0,0,1-2.82-1.56,7.62,7.62,0,0,1-1.91-3,12.73,12.73,0,0,1-.65-4.63v-7.73H557v-6.79h3.77V396Z"/><path class="cls-2" d="M102.51,435.89v14.65h-1.05v-7.19H93v7.19H92V435.89h1v6.51h8.48v-6.51Z"/><path class="cls-2" d="M115.27,449.61v.93h-8.9V435.89h8.75v.93H107.4v5.6h7.07v.93H107.4v6.26Z"/><path class="cls-2" d="M125.81,445.75h-6.58l-1.81,4.79h-1.06l5.53-14.65h1.24l5.54,14.65h-1Zm-.34-.88-3-7.82-3,7.82Z"/><path class="cls-2" d="M139.66,449.59v1h-8.77V435.89h1v13.7Z"/><path class="cls-2" d="M148.41,436.84h-4.77v13.7h-1v-13.7h-4.76v-.95h10.58Z"/><path class="cls-2" d="M161.2,435.89v14.65h-1v-7.19h-8.47v7.19h-1V435.89h1v6.51h8.47v-6.51Z"/><path class="cls-2" d="M164.16,443.22c0-4.44,3.07-7.56,7.14-7.56a6.49,6.49,0,0,1,6.47,4.57l-1,.42a5.49,5.49,0,0,0-5.48-4c-3.43,0-6.05,2.67-6.05,6.55s2.62,6.54,6.14,6.54a5.38,5.38,0,0,0,5.39-4l1,.43a6.35,6.35,0,0,1-6.38,4.57C167.23,450.77,164.16,447.65,164.16,443.22Z"/><path class="cls-2" d="M188.13,445.75h-6.58l-1.81,4.79h-1.06l5.53-14.65h1.24L191,450.54h-1.05Zm-.34-.88-2.95-7.82-3,7.82Z"/><path class="cls-2" d="M197.15,443.69l5.75,6.85h-1.24L196,443.69h-1.73v6.85h-1V435.89h5.12c2.83,0,4.57,1.58,4.57,3.9s-1.77,3.9-4.57,3.9Zm-2.91-.83h4.07c2.28,0,3.54-1.22,3.54-3s-1.26-3-3.54-3h-4.07Z"/><path class="cls-2" d="M214.61,449.61v.93h-8.9V435.89h8.75v.93h-7.72v5.6h7.06v.93h-7.06v6.26Z"/><path class="cls-2" d="M230.8,436.84H226v13.7H225v-13.7h-4.77v-.95H230.8Z"/><path class="cls-2" d="M237,443.69l5.76,6.85h-1.25l-5.69-6.85h-1.73v6.85h-1V435.89h5.12c2.83,0,4.58,1.58,4.58,3.9s-1.77,3.9-4.58,3.9Zm-2.91-.83h4.07c2.28,0,3.54-1.22,3.54-3s-1.26-3-3.54-3h-4.07Z"/><path class="cls-2" d="M253.21,445.75h-6.58l-1.81,4.79h-1.06l5.53-14.65h1.24l5.54,14.65h-1Zm-.34-.88-3-7.82L247,444.87Z"/><path class="cls-2" d="M258.29,435.89h1v14.65h-1Z"/><path class="cls-2" d="M273.76,435.89v14.65h-.88l-8.65-12.82v12.82h-1V435.89h.89l8.62,12.79V435.89Z"/><path class="cls-2" d="M277.62,435.89h1v14.65h-1Z"/><path class="cls-2" d="M293.09,435.89v14.65h-.88l-8.65-12.82v12.82h-1V435.89h.89L292,448.68V435.89Z"/><path class="cls-2" d="M303.19,450.77c-4.09,0-7.12-3.14-7.12-7.55s3-7.56,7.12-7.56a6.51,6.51,0,0,1,6.45,4.51l-1,.42a5.48,5.48,0,0,0-5.46-3.92c-3.46,0-6,2.67-6,6.57s2.57,6.56,6.12,6.56c3.22,0,5.67-2.28,6-5.86h-6.09v-.84h7.13C310.3,447.71,307.24,450.77,303.19,450.77Z"/><path class="cls-2" d="M325.45,445.75h-6.57l-1.82,4.79H316l5.52-14.65h1.25l5.54,14.65h-1.05Zm-.33-.88-2.95-7.82-3,7.82Z"/><path class="cls-2" d="M341.1,435.89v14.65h-.89l-8.64-12.82v12.82h-1V435.89h.88L340,448.68V435.89Z"/><path class="cls-2" d="M357,443.2c0,4.41-3,7.34-7,7.34H345V435.89H350C354,435.89,357,438.8,357,443.2Zm-1.07,0c0-3.81-2.55-6.36-5.94-6.36h-4v12.75h4C353.41,449.59,356,447.08,356,443.2Z"/><path class="cls-2" d="M364.23,443.22c0-4.44,3.07-7.56,7.14-7.56a6.5,6.5,0,0,1,6.47,4.57l-1,.42a5.49,5.49,0,0,0-5.48-4c-3.44,0-6.05,2.67-6.05,6.55s2.61,6.54,6.13,6.54c2.77,0,4.49-1.48,5.4-4l1,.43a6.35,6.35,0,0,1-6.38,4.57C367.3,450.77,364.23,447.65,364.23,443.22Z"/><path class="cls-2" d="M379.55,443.22c0-4.42,3.1-7.56,7.25-7.56a7.56,7.56,0,1,1-7.25,7.56Zm13.43,0c0-3.85-2.64-6.55-6.18-6.55s-6.17,2.7-6.17,6.55,2.61,6.54,6.17,6.54S393,447.06,393,443.22Z"/><path class="cls-2" d="M409.93,450.54l-.84-13-4.89,12.37h-.91l-4.89-12.37-.84,13h-1l.92-14.65h1v0l.17,0,5.08,12.77,5.06-12.77.17,0v0h1l.95,14.65Z"/><path class="cls-2" d="M424,440c0,2.48-1.77,4.06-4.57,4.06h-4.09v6.52h-1V435.89h5.12C422.29,435.89,424,437.47,424,440ZM423,440c0-1.88-1.27-3.14-3.54-3.14h-4.05v6.26h4.05C421.69,443.08,423,441.83,423,440Z"/><path class="cls-2" d="M435.4,449.59v1h-8.77V435.89h1v13.7Z"/><path class="cls-2" d="M437.63,435.89h1v14.65h-1Z"/><path class="cls-2" d="M450.32,445.75h-6.57l-1.82,4.79h-1.05l5.52-14.65h1.25l5.54,14.65h-1.05Zm-.33-.88L447,437.05l-3,7.82Z"/><path class="cls-2" d="M466,435.89v14.65h-.89l-8.64-12.82v12.82h-1V435.89h.88l8.62,12.79V435.89Z"/><path class="cls-2" d="M468.92,443.22c0-4.44,3.08-7.56,7.15-7.56a6.51,6.51,0,0,1,6.47,4.57l-1,.42a5.48,5.48,0,0,0-5.48-4c-3.43,0-6.05,2.67-6.05,6.55s2.62,6.54,6.14,6.54a5.38,5.38,0,0,0,5.39-4l1,.43a6.37,6.37,0,0,1-6.39,4.57C472,450.77,468.92,447.65,468.92,443.22Z"/><path class="cls-2" d="M494.05,449.61v.93h-8.9V435.89h8.75v.93h-7.72v5.6h7.07v.93h-7.07v6.26Z"/></svg>