<svg xmlns="http://www.w3.org/2000/svg" viewBox="0 0 2500 2500"><defs><style>.cls-1{fill:#fff;}.cls-2{fill:#829df8;}.cls-3{fill:#7793e0;}.cls-4{fill:#839cf6;}.cls-5{fill:#1321f1;}</style></defs><g id="Background"><rect class="cls-1" width="2500" height="2500"/></g><g id="Illustration"><path class="cls-2" d="M950,1115.76c-9.8,87-18.19,158.43-23.06,212.12-20.59,227-30.89,340.57-26.18,394.57,5.77,66.09,17.68,109-2.05,160.26a233.64,233.64,0,0,0-15.51,81c-.23,22.11-.19,41.45,11.81,50,16.71,11.92,39.92-9,79.64-14.13,35.08-4.52,65.86,5.52,87.74,15.81,9.66-95.27,30.39-183,39.12-278.43,11.76-128.59,11.13-264.84,21.19-393.55a1188.9,1188.9,0,0,1,35.1,141.2c35.32,192.11,54.81,298.13,32.1,413.62-4.28,21.73-15,68.78,8.61,89.59,11.77,10.39,28.34,11,73.44,5.66a1262.07,1262.07,0,0,0,125.17-21.2,4821,4821,0,0,0-94.73-589.74c-23.79-105.72-50.14-206.13-78-301C1132.41,1092.42,1041.84,1104.84,950,1115.76Z"/><path class="cls-2" d="M906.75,2019.51a21.73,21.73,0,0,1-13.08-4c-13.18-9.41-13-30-12.73-51.83a238.82,238.82,0,0,1,15.49-81.34l.16-.41c15.34-39.87,11.25-75.16,6.08-119.83-1.44-12.45-2.93-25.33-4.16-39.44-4.73-54.19,5.59-168,26.16-394.78,4-43.8,10.34-99.92,17.71-164.9q2.6-22.89,5.37-47.46a2.21,2.21,0,0,1,1.94-2c46-5.46,92.37-11.39,137.24-17.13s91.19-11.67,137.12-17.12a2.22,2.22,0,0,1,2.38,1.57c29.13,99.1,55.4,200.43,78.06,301.17a4843.17,4843.17,0,0,1,94.78,590,2.22,2.22,0,0,1-1.73,2.38,1270.76,1270.76,0,0,1-125.38,21.23c-44.39,5.22-62.41,5.07-75.16-6.19-23.47-20.73-14.66-64.9-9.93-88.64l.61-3c22.63-115.08,3.19-220.82-32.1-412.8A1192.08,1192.08,0,0,0,1124,1355.2c-4.1,56.13-6.35,114.37-8.53,170.81-2.69,69.89-5.48,142.17-11.79,211.15-4.53,49.55-12.43,97.83-20.06,144.52-7.09,43.32-14.42,88.12-19.06,133.92a2.2,2.2,0,0,1-3.14,1.78c-29.63-13.94-58.75-19.2-86.52-15.62-16.26,2.09-29.51,6.81-41.2,11C923.47,2016.35,914.58,2019.51,906.75,2019.51ZM952,1117.74q-2.67,23.64-5.18,45.73c-7.36,65-13.72,121-17.68,164.61-20.56,226.69-30.87,340.39-26.18,394.18,1.23,14,2.72,26.9,4.15,39.32,5.25,45.28,9.39,81-6.34,121.92l-.16.42a234.06,234.06,0,0,0-15.2,79.8c-.22,20.63-.42,40.11,10.88,48.18,8.84,6.3,20.21,2.25,36-3.35,11.31-4,25.39-9,42.11-11.17,27.75-3.57,56.71,1.37,86.15,14.7,4.67-44.86,11.84-88.7,18.77-131.12,7.63-46.61,15.51-94.81,20-144.21,6.3-68.86,9.08-141.07,11.77-210.91,2.33-60.39,4.74-122.84,9.42-182.61a2.21,2.21,0,0,1,2-2,2.18,2.18,0,0,1,2.36,1.53,1199,1199,0,0,1,35.17,141.46c35.38,192.5,54.88,298.54,32.09,414.44l-.61,3.06c-4.56,22.86-13.05,65.41,8.52,84.46,10.75,9.49,25.49,10.54,71.71,5.11,40.77-4.79,82.15-11.77,123-20.74a4838.21,4838.21,0,0,0-94.5-587.51c-22.51-100-48.57-200.66-77.47-299.1-45.3,5.39-91,11.24-135.21,16.89S997.36,1112.34,952,1117.74Z"/><path class="cls-3" d="M1124.67,1382.2a2.21,2.21,0,0,1-2.21-2.21c0-.24,0-1.65-.13-3.92-.42-12.06-1.68-48.78-1.23-63.43a59.86,59.86,0,0,1,40.06-54.48,2.21,2.21,0,0,1,1.45,4.18,55.42,55.42,0,0,0-37.09,50.44c-.44,14.51.82,51.11,1.23,63.14.08,2.4.13,3.87.13,4.07A2.21,2.21,0,0,1,1124.67,1382.2Z"/><path class="cls-1" d="M1428.17,697.24l-43.56,82.88s-78.72,41.41-17.19,176.91a6.07,6.07,0,0,1-4,8.41c-20.05,5-76,18.16-82,9.69C1274.16,964.79,1246.83,726.27,1428.17,697.24Z"/><path class="cls-4" d="M1293.41,980.06q-11.21,0-13.79-3.66c-4.9-7-16.71-99,15.86-176.11,25.25-59.81,69.78-95.22,132.34-105.23a2.21,2.21,0,0,1,2.3,3.21l-43.55,82.88a2.2,2.2,0,0,1-.93.93c-.19.1-19.3,10.46-30.8,36.85-10.65,24.47-16.77,68.12,14.59,137.18a8.28,8.28,0,0,1-5.51,11.47C1330.79,975.89,1307.21,980.06,1293.41,980.06Zm130.72-279.88c-58.25,10.62-100,44.48-124.1,100.71-33.56,78.28-20.14,168.1-16.79,173,2.8,4,28.5,2.25,79.6-10.56a3.88,3.88,0,0,0,2.57-5.36c-32.12-70.74-25.61-115.75-14.49-141.06s28.48-36.31,32-38.37Z"/><path class="cls-5" d="M1241.58,1140.15c-21.11-120.18,6.42-237.84-14.69-358a411.33,411.33,0,0,0-259.61-18.47,118.57,118.57,0,0,0-70.56,50.52,157.72,157.72,0,0,0-13.62,26.08C876.35,857,870.48,871.5,867,883.89a23.13,23.13,0,0,0,9.37,25.72c21.32,14,45.33,40.17,65.25,47.87-24.36,73.14,15.15,115.4,3.43,191.27C957.9,1155.62,1098,1180.55,1241.58,1140.15Z"/><path class="cls-1" d="M1256.2,690.83c2.6-2.72,128.88,93.69,128.88,93.69s-97.5,136-98.74,231.46c0,0-90.82-15.65-113.55-49.89C1172.79,966.09,1149.11,802.61,1256.2,690.83Z"/><path class="cls-4" d="M1286.34,1018.19a2.31,2.31,0,0,1-.37,0c-3.75-.64-92-16.21-115-50.85a2.1,2.1,0,0,1-.34-.91c-.06-.41-5.88-41.8,1.54-96.32,6.85-50.36,26.72-122.61,82.45-180.78h0c1.93-2,3-3.11,68.34,45.58,31.54,23.5,63.16,47.64,63.48,47.88a2.21,2.21,0,0,1,.45,3c-1,1.35-97.1,136.52-98.31,230.2a2.2,2.2,0,0,1-.8,1.67A2.23,2.23,0,0,1,1286.34,1018.19Zm-111.42-52.91c20.27,29.65,94.58,45.23,109.27,48.05,2.76-89,86.61-212.22,97.86-228.34-46.36-35.38-115.13-86.83-125.14-91.7C1155.69,800,1173.64,955.35,1174.92,965.28Zm82.88-272.92Z"/><path class="cls-4" d="M1236.85,863.3c-11.68-8.75-49.83-34.21-63.32-26.27-6,3.52-17.17,7.57-26.08,16.74-14.86,15.29-31.66,28.56-50.75,38L979.25,950.14a47.62,47.62,0,0,1-47-4.46l-53.84-42.36s-28,140.33,53,160.77c70.63,17.81,191.1-121.33,220.84-157.32a23.24,23.24,0,0,1,17.72-8.43c13.22-.12,34.41-.4,40-1C1244.56,893.89,1244.68,869.17,1236.85,863.3Z"/><path class="cls-4" d="M944.5,1067.86a55.78,55.78,0,0,1-13.69-1.63c-34.13-8.61-54.37-39.73-58.53-90-3.1-37.51,3.86-73,3.93-73.34a2.21,2.21,0,0,1,3.54-1.3l53.83,42.36a45.57,45.57,0,0,0,44.76,4.18l117.37-58.29c17.44-8.66,34.31-21.31,50.15-37.6,7-7.15,15.27-11.32,21.35-14.37,2-1,3.77-1.9,5.2-2.74,16.9-10,63.78,24.93,65.77,26.42,4.39,3.29,6.21,10.6,4.33,17.38-1.5,5.38-7.65,18.17-32.34,20.65-5.48.56-24.91.84-40.24,1a21,21,0,0,0-16,7.63C1121.64,947.21,1016.06,1067.86,944.5,1067.86ZM879.92,907.34c-3.61,21.89-18.94,136.72,52,154.6a51,51,0,0,0,12.56,1.5c71.57,0,183.24-130.49,206-158.07a25.38,25.38,0,0,1,19.4-9.24c21.54-.2,35.69-.54,39.84-1,22-2.21,27.26-12.93,28.52-17.43,1.59-5.71-.22-10.79-2.72-12.67h0c-17.91-13.42-50.27-32.38-60.88-26.14-1.56.92-3.37,1.83-5.46,2.88-6.12,3.07-13.73,6.89-20.16,13.5-16.18,16.65-33.46,29.6-51.35,38.48L980.24,952.12a50.07,50.07,0,0,1-49.3-4.63Z"/><path class="cls-4" d="M1339.36,788.19a2.26,2.26,0,0,1-1.24-.38l-78.21-53.11a2.21,2.21,0,1,1,2.48-3.65l78.22,53.1a2.21,2.21,0,0,1-1.25,4Z"/><path class="cls-4" d="M1324.53,810.75a2.18,2.18,0,0,1-1.22-.37l-78-52.22a2.21,2.21,0,0,1,2.46-3.68l78,52.23a2.21,2.21,0,0,1-1.23,4Z"/><path class="cls-4" d="M1312.61,834a2.13,2.13,0,0,1-1.16-.33l-31.27-19.34a2.21,2.21,0,0,1,2.32-3.76l31.27,19.34a2.21,2.21,0,0,1-1.16,4.09Z"/><path class="cls-1" d="M1183.17,608.09c.37-1.47-27.9-31.55-27.9-31.55l-51.51,4.07c-30.8-1.39-34,57.91-34,57.91a87,87,0,0,1,3.26,13.94c-10.73,26.37-42.53,98.78-72.49,109.91-17.9,6.65,28.88,66.07,68.94,66.92s83.34-14.26,84-29.43-48.83-49.18-48.83-49.18l9.38-23.09a96.83,96.83,0,0,0,15.15,7.57,12.15,12.15,0,0,0,15.8-7.53l11.74-33.24,6.89,1.73c3.78.94,8.26-1.82,7.7-5.68C1166.52,657.91,1180.37,619.33,1183.17,608.09Z"/><path class="cls-3" d="M1072.6,831.54c-1,0-2.09,0-3.13,0-34.17-.73-71.61-41.35-74.8-60.22-1.25-7.43,2.68-10.07,5.14-11,29.29-10.88,61.45-84.75,71-108.11a86,86,0,0,0-3.07-13,2.35,2.35,0,0,1-.12-.83c.14-2.48,3.56-60,35.07-60l1,0,51.38-4.06a2.16,2.16,0,0,1,1.78.69c29.09,31,28.79,32.19,28.43,33.6-.44,1.79-1.13,4.16-2,7.16-4.48,15.36-13.79,47.33-9.82,74.34a6.79,6.79,0,0,1-2.29,6.1,9.12,9.12,0,0,1-8.13,2l-4.94-1.23-11.07,31.34a14.36,14.36,0,0,1-18.67,8.86,94,94,0,0,1-13.27-6.44l-7.75,19.08c9.3,6.52,48.93,35.17,48.32,50.08C1155,817.43,1110.2,831.54,1072.6,831.54Zm-.55-193.3a91.14,91.14,0,0,1,3.21,13.91,2.36,2.36,0,0,1-.14,1.15c-12.07,29.66-43.41,99.86-73.77,111.14-.86.32-3.15,1.17-2.32,6.1,2.92,17.26,38.92,55.87,70.53,56.54,41.5,1,81.2-14.63,81.71-27.31.42-10.23-28.4-33.88-47.87-47.27a2.21,2.21,0,0,1-.79-2.65l9.37-23.09a2.21,2.21,0,0,1,1.35-1.26,2.13,2.13,0,0,1,1.84.2,94,94,0,0,0,14.79,7.39,9.93,9.93,0,0,0,12.92-6.16l11.75-33.27a2.21,2.21,0,0,1,2.62-1.41l6.89,1.72a4.67,4.67,0,0,0,4.09-1,2.43,2.43,0,0,0,.89-2.18c-4.12-28,5.38-60.57,9.94-76.23.73-2.49,1.34-4.58,1.77-6.22-2.21-3.22-14.8-17.08-26.44-29.49l-50.46,4h-.27C1076.62,581.65,1072.4,633.13,1072.05,638.24Zm109-30.68h0Z"/><path class="cls-3" d="M1115.64,730.81a2.21,2.21,0,0,1-1.29-.42l-13-9.39c-13.27-9.59-20.56-22.24-21.09-36.57a2.21,2.21,0,0,1,2.13-2.29,2.18,2.18,0,0,1,2.29,2.12c.48,13.11,7,24.27,19.26,33.16l13,9.38a2.22,2.22,0,0,1-1.3,4Z"/><path class="cls-3" d="M1107.31,642a4.12,4.12,0,0,0,3.64-3.57c.14-1.08.26-2.31.34-3.66.88-15.17-5.33-22.75-1.43-29,2.13-3.4,6.08-4.46,8.32-5.06,11.15-3,16.63,12.88,37.81,26.91,26.3,17.43,28.27,20.68,34.44,21.28,23.21,2.26,35.5-23,41.55-37.21,1.7-4,10.16-25.36-3.1-43.71a42.3,42.3,0,0,0-29.49-16.94,18.83,18.83,0,0,1-15.53-11.48,16.93,16.93,0,0,0-2.79-4.75c-10.24-12.21-35.2-4.76-43.94-2.15a85.68,85.68,0,0,0-26.82,13.6,18.57,18.57,0,0,1-20.66.95,25.93,25.93,0,0,0-11.53-3.79c-17.31-1.24-28.51,16.86-29.55,18.59-12,20.13-2.14,46.2,5.34,65.88a158.08,158.08,0,0,0,16.46,31.84l.13,0a9.7,9.7,0,0,0,8.08-12.27,37.89,37.89,0,0,1-1.47-11.42c.08-3.31-.37-13.87,7.8-17.1,5-2,16.71,1.45,17.8,18.85a4.2,4.2,0,0,0,4.52,4.2Z"/><path class="cls-1" d="M1208.1,1804.52c21.71-44.69,23.78-89.73,0-135.22l17.07-20.47L1692,1664.19,1676,1812.5,1224,1817.7Z"/><path class="cls-5" d="M1224,1819.92a2.22,2.22,0,0,1-1.41-.51l-15.92-13.19a2.23,2.23,0,0,1-.58-2.67c22.59-46.48,22.6-90.06,0-133.22a2.22,2.22,0,0,1,.26-2.44l17.07-20.47a2.21,2.21,0,0,1,1.77-.8L1692.11,1662a2.21,2.21,0,0,1,2.13,2.44l-16.09,148.31a2.21,2.21,0,0,1-2.17,2l-451.93,5.21Zm-13.18-16,14,11.57,449.15-5.18,15.63-144-463.41-15.24-15.44,18.51C1232.75,1712.59,1232.78,1757.76,1210.84,1803.92Z"/><path class="cls-1" d="M2066,1632.5H1199.44a18.34,18.34,0,0,0,0,36.68h398.38a52.82,52.82,0,0,1,52.82,52.82v29.7a52.82,52.82,0,0,1-52.82,52.82H1199.44a18.34,18.34,0,0,0,0,36.68H2066a97.4,97.4,0,0,0,97.4-97.4v-13.9A97.4,97.4,0,0,0,2066,1632.5Z"/><path class="cls-4" d="M2066,1843.41H1199.44a20.55,20.55,0,1,1,0-41.1h398.38a50.68,50.68,0,0,0,50.61-50.61V1722a50.68,50.68,0,0,0-50.61-50.61H1199.44a20.55,20.55,0,1,1,0-41.1H2066a99.72,99.72,0,0,1,99.61,99.61v13.9A99.73,99.73,0,0,1,2066,1843.41Zm-866.53-36.68a16.13,16.13,0,0,0,0,32.26H2066a95.29,95.29,0,0,0,95.18-95.19v-13.9a95.29,95.29,0,0,0-95.18-95.19H1199.44a16.13,16.13,0,0,0,0,32.26h398.38a55.1,55.1,0,0,1,55,55v29.7a55.1,55.1,0,0,1-55,55Z"/><path class="cls-4" d="M1471,1710.72h-34.13a2.21,2.21,0,1,1,0-4.42H1471a2.21,2.21,0,0,1,0,4.42Z"/><path class="cls-4" d="M1415.51,1710.72H1234.88a2.21,2.21,0,0,1,0-4.42h180.63a2.21,2.21,0,0,1,0,4.42Z"/><path class="cls-4" d="M1450.25,1732.81H1236.54a2.21,2.21,0,1,1,0-4.42h213.71a2.21,2.21,0,1,1,0,4.42Z"/><path class="cls-4" d="M1504,1772.42h-38.84a2.22,2.22,0,0,1,0-4.43H1504a2.22,2.22,0,0,1,0,4.43Z"/><path class="cls-4" d="M1448.59,1772.42H1234.88a2.22,2.22,0,0,1,0-4.43h213.71a2.22,2.22,0,0,1,0,4.43Z"/><path class="cls-1" d="M1165.2,2060.14H1969V1863.21H1165.2C1188.93,1929.73,1189.59,1995.4,1165.2,2060.14Z"/><path class="cls-5" d="M1969,2062.35H1165.2a2.19,2.19,0,0,1-1.81-.95,2.22,2.22,0,0,1-.26-2c23.75-63.07,23.75-128.81,0-195.41a2.21,2.21,0,0,1,2.08-3H1969a2.2,2.2,0,0,1,2.21,2.21v196.93A2.21,2.21,0,0,1,1969,2062.35Zm-800.66-4.42h798.45V1865.42H1168.32C1191,1931,1191.05,1995.71,1168.38,2057.93Z"/><path class="cls-1" d="M1872.27,1872.92h-712.6a15.52,15.52,0,0,1,0-31h924.71a68.19,68.19,0,0,1,68.19,68.19v107.19a68.19,68.19,0,0,1-68.19,68.19H1159.67a15.52,15.52,0,0,1,0-31h712.6a48.18,48.18,0,0,0,48.17-48.18v-85.16A48.17,48.17,0,0,0,1872.27,1872.92Z"/><path class="cls-4" d="M2084.38,2087.67H1159.67a17.73,17.73,0,0,1,0-35.45h712.6a46,46,0,0,0,46-46v-85.16a46,46,0,0,0-46-46h-712.6a17.73,17.73,0,0,1,0-35.45h924.71a70.48,70.48,0,0,1,70.4,70.4v107.19A70.48,70.48,0,0,1,2084.38,2087.67Zm-924.71-31a13.31,13.31,0,0,0,0,26.61h924.71a66.06,66.06,0,0,0,66-66V1910.08a66.06,66.06,0,0,0-66-66H1159.67a13.31,13.31,0,0,0,0,26.61h712.6a50.44,50.44,0,0,1,50.38,50.38v85.16a50.44,50.44,0,0,1-50.38,50.39Z"/><path class="cls-4" d="M1309.77,1912.18h-118.7a2.21,2.21,0,0,1,0-4.42h118.7a2.21,2.21,0,0,1,0,4.42Z"/><path class="cls-4" d="M1545.88,1912.18H1330.11a2.21,2.21,0,1,1,0-4.42h215.77a2.21,2.21,0,0,1,0,4.42Z"/><path class="cls-4" d="M1490.19,1938.47H1193.57a2.22,2.22,0,0,1,0-4.43h296.62a2.22,2.22,0,0,1,0,4.43Z"/><path class="cls-4" d="M1575.65,1938.47h-60.37a2.22,2.22,0,0,1,0-4.43h60.37a2.22,2.22,0,0,1,0,4.43Z"/><path class="cls-4" d="M1508.1,1993.33H1193.57a2.22,2.22,0,0,1,0-4.43H1508.1a2.22,2.22,0,0,1,0,4.43Z"/><path class="cls-4" d="M1545.88,1993.33h-27.33a2.22,2.22,0,0,1,0-4.43h27.33a2.22,2.22,0,0,1,0,4.43Z"/><path class="cls-1" d="M1636.89,1762.28c-17.53-9.84-38.32-8.31-54.72,3.76-11.67,8.58-30.09,17.88-59,24.81-19.72,4.73-33.13,11.24-42.22,18.17-15.35,11.72-7.87,38.83,10.67,38.83h152.48l6.59-85.61Z"/><path class="cls-3" d="M1644.09,1850.07H1491.61c-9,0-16.56-5.82-19.73-15.19-2.9-8.6-1.64-20.47,7.72-27.62,10.45-8,24.93-14.22,43.05-18.56,24.58-5.89,44.16-14.11,58.21-24.44,16.93-12.47,38.57-14,56.6-4.19l13.21,0h0a2.2,2.2,0,0,1,1.62.7,2.25,2.25,0,0,1,.59,1.68l-6.6,85.61A2.21,2.21,0,0,1,1644.09,1850.07Zm-31.54-92a49,49,0,0,0-29.07,9.73c-14.53,10.68-34.65,19.15-59.8,25.18-17.51,4.2-31.44,10.18-41.39,17.78-7.63,5.81-8.62,15.58-6.22,22.68,2,5.89,7.12,12.18,15.54,12.18H1642l6.25-81.18-11.39,0h0a2.16,2.16,0,0,1-1.08-.29A47.42,47.42,0,0,0,1612.55,1758.09Z"/><path class="cls-3" d="M1527.57,1832.38h-34a2.21,2.21,0,0,1,0-4.42h34a2.21,2.21,0,0,1,0,4.42Z"/><path class="cls-1" d="M1711.68,1762.28c-17.54-9.84-38.32-8.31-54.72,3.76-11.68,8.58-30.09,17.88-59,24.81-38.23,9.16-52.74,25-58,37.68-3.74,9,2,19.32,10.85,19.32h159.75c12.26,0,21.39-12.78,18.77-26.3l-10.7-55.37Z"/><path class="cls-3" d="M1710.56,1850.07H1550.81a13.64,13.64,0,0,1-11.4-6.36,17.28,17.28,0,0,1-1.5-16c5.2-12.52,19.75-29.44,59.53-39,24.57-5.89,44.16-14.11,58.21-24.44,17.1-12.58,39-14.08,57.11-3.9l7,3.9a2.21,2.21,0,0,1,1.08,1.51l10.71,55.36a26,26,0,0,1-5.19,21.24A20.27,20.27,0,0,1,1710.56,1850.07Zm-23.23-92a48.93,48.93,0,0,0-29.06,9.73c-14.53,10.68-34.65,19.15-59.8,25.18-38,9.1-51.67,24.8-56.47,36.38a12.76,12.76,0,0,0,1.08,11.87,9.31,9.31,0,0,0,7.73,4.39h159.75a15.92,15.92,0,0,0,12.35-6.08,21.46,21.46,0,0,0,4.25-17.59l-10.5-54.36-6.06-3.4A47.43,47.43,0,0,0,1687.33,1758.09Z"/><path class="cls-3" d="M1702,1832.38h-137a2.21,2.21,0,0,1,0-4.42h137a2.21,2.21,0,0,1,0,4.42Z"/><path class="cls-4" d="M2124.75,1513.76s-17.85-22.45-105.52-84.45-252.08-103.12-302.59-100.77c-69,3.21-67.36,88.49-67.36,139.52,0,74.57-71.63,301.26-71.63,301.26,11.92,8.55,46.44,15.81,92.85,19.9,0,0,132.73-150.38,115.89-294.7,0,0,62.87,106,144.49,134.77,14,5,60,4,100.32,2.19a93.3,93.3,0,0,0,87.28-75.21C2120.89,1544.07,2123.05,1530,2124.75,1513.76Z"/><path class="cls-3" d="M1767.15,1441.6s47,206.13-32.54,347.62h-70.74Z"/><path class="cls-1" d="M1687.63,1777.66a2.23,2.23,0,0,1-2.07-3c15.46-42.62,43.86-127.56,60.27-217.54a2.21,2.21,0,0,1,4.35.79c-16.47,90.3-45,175.51-60.47,218.26A2.2,2.2,0,0,1,1687.63,1777.66Z"/><path class="cls-3" d="M2057.58,887.26c21.69,16.8,9.82,32.16,38.21,71.42,20.85,28.85,38,35.45,38.07,54.79.06,17.42-13.82,30.4-23,39-41.6,38.91-100.77,36.87-137.11,35.62-29.39-1-69.7-2.39-75.81-20.58-6-18,28.22-31.6,30.11-67.5,1.51-28.88-19.82-36.24-16-61.92,5-33.23,45.31-51.41,51.78-54.33C1989.83,872,2030.87,866.57,2057.58,887.26Z"/><path class="cls-3" d="M2016.54,879.71s-1.35-56.5,44.9-49.91,12.67,59.63-19.5,69.32S2016.54,879.71,2016.54,879.71Z"/><path class="cls-5" d="M2066.22,1049.49a37.47,37.47,0,0,1,20.89,8.27c15.31,12.49,42.5,39.52,53.7,80.86,20.91,77.2,33.42,288.62-7.73,393.71a12.37,12.37,0,0,1-18.21,6c-63-43.12-14-69.34-176.87-151.45,11-90.64-46.16-177.81-22.11-238.76,9.17-23.22,23.9-54.59,44.22-74.06C1991.35,1044.09,2044.27,1047.81,2066.22,1049.49Z"/><path class="cls-5" d="M2121.51,1542.48a14.5,14.5,0,0,1-7.8-2.29l-.09,0c-23.31-16-31.68-29.84-40.53-44.53-15.48-25.69-33-54.81-136.08-106.78a2.18,2.18,0,0,1-1.2-2.24c5.25-43.11-4.88-84.65-14.69-124.82-10.31-42.24-20-82.14-7.28-114.49,13.45-34.1,28.51-59.28,44.74-74.84,32.27-30.94,87.15-26.74,107.81-25.16a39.51,39.51,0,0,1,22.12,8.77c15.45,12.61,43.07,40,54.43,82,20.62,76.15,33.64,289.27-7.8,395.1a14.67,14.67,0,0,1-13.63,9.34Zm-5.44-6a10.17,10.17,0,0,0,14.95-4.93c41.11-105,28.14-316.67,7.65-392.33-11-40.77-37.92-67.45-53-79.73a35.13,35.13,0,0,0-19.66-7.78c-20.11-1.53-73.56-5.63-104.41,23.94-15.77,15.12-30.47,39.77-43.69,73.28-12.25,31-2.67,70.27,7.47,111.81,9.32,38.22,19.88,81.47,15,124.86,103,52.1,120.78,81.66,136.5,107.75C2085.84,1508.21,2093.59,1521.06,2116.07,1536.46Z"/><polygon class="cls-1" points="1840.71 1133.76 1819.71 1078.55 1794.61 1077.63 1744.5 1141.78 1742.49 1149.79 1805.43 1267.26 1883.21 1276.48 1881.2 1222.76 1860.36 1133.36 1840.71 1133.76"/><polygon class="cls-1" points="1819.71 1078.55 1782.98 1131.35 1841.11 1132.56 1819.71 1078.55"/><path class="cls-4" d="M1841.11,1134.77h0l-58.13-1.21a2.2,2.2,0,0,1-1.77-3.47l36.72-52.8a2.14,2.14,0,0,1,2.07-.93,2.19,2.19,0,0,1,1.8,1.38l21.41,54a2.21,2.21,0,0,1-2.06,3Zm-54-5.54,50.68,1-18.66-47.08Z"/><path class="cls-4" d="M1863.56,1146.79a2.21,2.21,0,0,1-2.12-1.6l-2.76-9.64-85.74-.78a2.21,2.21,0,0,1,0-4.42h0l87.4.8a2.19,2.19,0,0,1,2.1,1.6l3.21,11.23a2.2,2.2,0,0,1-1.52,2.73A2.13,2.13,0,0,1,1863.56,1146.79Z"/><path class="cls-4" d="M1886.82,1278.69h-.25l-81.39-9.23a2.22,2.22,0,0,1-1.71-1.17l-60.78-116.21a12.19,12.19,0,0,1,1.17-13.09l54.61-70.32a2.21,2.21,0,0,1,3.5,2.71l-54.62,70.32a7.76,7.76,0,0,0-.74,8.33l60.24,115.18,80.22,9.08a2.21,2.21,0,0,1-.25,4.41Z"/><path class="cls-4" d="M1845.43,1154.54a2.22,2.22,0,0,1-1.74-3.58l14.93-19a2.21,2.21,0,0,1,3.47,2.73l-14.93,19A2.18,2.18,0,0,1,1845.43,1154.54Z"/><path class="cls-4" d="M2110.25,1224.5s-41.37,11.55-78.31-7.75l-.8,62.54s-92.38-28.65-116.43-45.49-6.14-75.61-51.15-89.22c0,0,9.63,27.26,5.62,30.47s-16,4.81-29.67-4-38.49-20.84-55.33-16.84,9.26,68.8,49.72,82.59c51.36,17.51,141.95,133.07,215.45,153.06a38.22,38.22,0,0,0,44.78-20.46c4.36-9.19,8.23-21.76,10-38.79C2108.65,1286.23,2110.25,1224.5,2110.25,1224.5Z"/><path class="cls-4" d="M2059.53,1393.43a40.82,40.82,0,0,1-10.77-1.45c-41.61-11.31-88.79-53-130.42-89.86-32.37-28.63-62.95-55.67-85.16-63.24-34.1-11.63-57.28-57.05-56.37-76.27.37-7.85,4.46-10,6.86-10.56,16.48-3.93,41,6.78,57,17.13,13.34,8.64,24.19,6.46,27.08,4.14,1.18-2-1.66-14.83-6.31-28a2.21,2.21,0,0,1,2.72-2.85c27.75,8.39,32.66,33.08,37,54.86,2.88,14.52,5.61,28.24,14.78,34.66,21.16,14.8,97.32,39.33,113,44.3l.76-59.57a2.22,2.22,0,0,1,3.24-1.94c35.75,18.69,76.28,7.7,76.69,7.59a2.2,2.2,0,0,1,2.8,2.19c0,.61-1.66,62.32-6.16,106.27-1.56,15.28-5,28.57-10.17,39.5A40.47,40.47,0,0,1,2059.53,1393.43Zm-268.05-237.81a29.55,29.55,0,0,0-6.78.73c-2.13.51-3.29,2.69-3.47,6.47-.84,17.62,21.65,61.06,53.38,71.88,23,7.85,53.94,35.18,86.66,64.11,41.26,36.5,88,77.86,128.66,88.91a36.15,36.15,0,0,0,42.2-19.28c5-10.47,8.26-23.28,9.78-38.06,3.92-38.35,5.67-90.32,6.05-103.05-9.83,2.2-42.68,7.76-73.85-7l-.76,59a2.22,2.22,0,0,1-.91,1.76,2.16,2.16,0,0,1-2,.33c-3.79-1.18-93-28.94-117-45.79-10.63-7.44-13.52-22-16.59-37.42-4-20.31-8.2-41.27-29.72-50,4,12.16,7.29,25.51,3.43,28.6-4.88,3.9-18.11,5.27-32.25-3.88C1825.17,1164.4,1806.17,1155.62,1791.48,1155.62Z"/><path class="cls-1" d="M1938.27,999.29c-1.7-2.68,6.35-17.23,6.63-22.52s-3.86-9.74-5.59-15.3.2-15.46.2-15.46c2.36-66.35,74.65-50.61,74.65-50.61,16.6,5,26.37,23.67,29.57,36.07,6.19,24-5.22,53-5.22,53,.49,1.09,12.34,78.78,12.86,79.79,7.51,14.43-42.82,23.88-58.66,9.34-5.35-4.91,1.5-41,0-41-5.93-.16-13.19,6.2-20.67,4.22-11-2.93-19.3-30.5-20.88-32.55-.75-1-3.31-1.54-6-2.15C1942.24,1001.43,1939.16,1000.7,1938.27,999.29Z"/><path class="cls-3" d="M2018.14,1083.05c-10.56,0-20.91-2.27-26.92-7.79-4-3.72-3-16.67-1.24-33.22.27-2.51.56-5.25.69-7a34.87,34.87,0,0,0-5.15,1.75c-4.21,1.65-9,3.53-14,2.18-9.7-2.57-16.68-20-20.43-29.43-.67-1.67-1.43-3.56-1.68-4a26.14,26.14,0,0,0-4.48-1.24c-4.23-1-7.19-1.78-8.49-3.84-1.47-2.32,0-6.3,3-13.72,1.51-3.79,3.23-8.09,3.33-10.1.15-2.69-1.17-5.24-2.7-8.2a38.6,38.6,0,0,1-2.79-6.32c-1.77-5.67-.16-14.93.11-16.37.71-19,7.08-33.22,18.94-42.43,22.67-17.61,56.93-10.4,58.38-10.09,18.46,5.58,28.31,26.31,31.24,37.68,5.87,22.75-3.39,49.26-5.06,53.76.45,2.32,1.67,9.87,6,37.24,2.74,17.48,6.14,39.14,6.68,41.58,2,4,.61,8.24-3.75,11.59C2043.48,1079.85,2030.66,1083.05,2018.14,1083.05Zm-25.65-52.68h.28a2.39,2.39,0,0,1,1.68.79c1,1.12.89,2.32-.07,11.34-.8,7.38-2.9,27-.17,29.49,11.55,10.61,42.65,7.36,52.8-.42,4-3.1,2.85-5.4,2.4-6.27-.33-.63-.44-.84-7-42.7-2.63-16.78-5.61-35.78-6-37.45a2.25,2.25,0,0,1,0-1.47c.11-.28,11.07-28.66,5.14-51.67-2.7-10.48-11.66-29.53-28.07-34.5-.17,0-33.56-7-54.58,9.31-10.8,8.4-16.59,21.61-17.22,39.25a2,2,0,0,1,0,.35c-.51,2.6-1.55,10.27-.26,14.38a36,36,0,0,0,2.5,5.61c1.67,3.23,3.4,6.58,3.19,10.46-.15,2.74-1.84,7-3.64,11.51-1.33,3.32-3.3,8.28-3.24,9.81.82.69,4,1.43,5.45,1.75,3.45.79,6,1.38,7.23,3,.51.65,1,1.78,2.24,5,3,7.42,9.91,24.8,17.46,26.8,3.66,1,7.54-.55,11.29-2C1986.86,1031.48,1989.67,1030.37,1992.49,1030.37Zm-52.24-32Z"/><path class="cls-3" d="M1930.63,909.33c7.27-7.36,16.82-16.58,45.69-20.63,24-3.37,11.88-5.37,30.06-2.37,5.1.84,14.23,2.35,23.25,8.95,13.35,9.77,18.32,23.48,21,33.71,5.14,20-1.31,43.24-4.21,52a4.91,4.91,0,0,1-5.1,3.34,126.08,126.08,0,0,1-16.2-2.33,3.71,3.71,0,0,1-2.69-5c.23-.59.44-1.2.62-1.83,2.4-8.42-1.63-17-9-19.05s-15.29,3-17.69,11.45c-.17.58-.29,1.17-.4,1.75-10.6-8-16.05-17.12-25.86-22a35.62,35.62,0,0,0-14.19-3.21c-17-.61-22.71,9.49-30.77,7.54C1911,948.25,1917.58,922.56,1930.63,909.33Z"/><path class="cls-3" d="M1991,1034.8a2.21,2.21,0,0,1-.66-4.32c23.24-7.32,26.81-21.92,27-22.54a2.21,2.21,0,0,1,4.32.94c-.16.72-4.1,17.68-29.95,25.82A2.51,2.51,0,0,1,1991,1034.8Z"/><rect class="cls-1" x="366.89" y="1755.14" width="470.89" height="362.91" rx="48.08" transform="translate(1204.66 3873.19) rotate(180)"/><path class="cls-2" d="M789.7,2120.26H415A50.35,50.35,0,0,1,364.68,2070V1803.22a50.36,50.36,0,0,1,50.29-50.3H789.7a50.36,50.36,0,0,1,50.29,50.3V2070A50.35,50.35,0,0,1,789.7,2120.26ZM415,1757.35a45.92,45.92,0,0,0-45.87,45.87V2070A45.93,45.93,0,0,0,415,2115.84H789.7A45.93,45.93,0,0,0,835.57,2070V1803.22a45.92,45.92,0,0,0-45.87-45.87Z"/><rect class="cls-1" x="360.22" y="1755.05" width="483.93" height="60.4" rx="15.11" transform="translate(1204.37 3570.5) rotate(180)"/><path class="cls-4" d="M832.8,1817.66H371.57c-7.48,0-13.56-6.55-13.56-14.59v-35.64c0-8,6.08-14.59,13.56-14.59H655.34a2.21,2.21,0,0,1,0,4.42H371.57c-5,0-9.14,4.56-9.14,10.17v35.64c0,5.61,4.1,10.17,9.14,10.17H832.8a2.21,2.21,0,0,1,0,4.42Z"/><path class="cls-4" d="M534.64,2110h0a2.2,2.2,0,0,1-2.17-2.24l4.43-281.46a2.21,2.21,0,0,1,4.42.06l-4.43,281.47A2.21,2.21,0,0,1,534.64,2110Z"/><path class="cls-1" d="M809.79,2060.53c4.54-4.59,30.76-86.15,30.76-86.15l51.8,37-56.8,76.33Z"/><path class="cls-3" d="M835.56,2089.89a2.22,2.22,0,0,1-1.61-.69l-25.76-27.15a2.2,2.2,0,0,1,0-3.06c3.22-3.65,20.25-54.24,30.23-85.28a2.21,2.21,0,0,1,3.39-1.13l51.81,37a2.21,2.21,0,0,1,.49,3.12L837.33,2089a2.23,2.23,0,0,1-1.64.89Zm-23-29.65,22.79,24,53.88-72.41-47.51-33.9C836.19,1995.08,818.61,2048.92,812.56,2060.24Z"/><path class="cls-3" d="M903.15,2163.65l-34.45-.2a67.82,67.82,0,0,1-56.43-30.82l-34.07-53.94a30.3,30.3,0,0,1,11.42-42.93c14.22-7.55,29.12-14.92,32.61-14.58,7.09.67,9.95,34.2,9.95,34.2l30.7,1.18s15.16,63.06,28.5,70.23a58.53,58.53,0,0,1,21.07,19.89A11,11,0,0,1,903.15,2163.65Z"/><path class="cls-1" d="M899.69,2152.41l-.33,0-47.13-7.1a37.86,37.86,0,0,1-26.93-18.05l-41.64-69.57a2.21,2.21,0,1,1,3.79-2.27L829.09,2125a33.46,33.46,0,0,0,23.8,16L900,2148a2.21,2.21,0,0,1-.32,4.4Z"/><path class="cls-1" d="M841.52,2100.09a2.21,2.21,0,0,1-.58-4.34l26.25-7.15a2.21,2.21,0,0,1,1.16,4.27L842.1,2100A2.36,2.36,0,0,1,841.52,2100.09Z"/><path class="cls-1" d="M855.19,2113.58a2.21,2.21,0,0,1-.52-4.36l17.6-4.31a2.21,2.21,0,0,1,1.05,4.3l-17.6,4.31A2.46,2.46,0,0,1,855.19,2113.58Z"/><path class="cls-3" d="M668.18,1622.08s274.9-32,356.64,38.76-129,375-129,375l-66.66-49.44,63.23-215.06-254.11-72.17Z"/><path class="cls-3" d="M895.78,2038.09a2.2,2.2,0,0,1-1.32-.44l-66.65-49.43a2.21,2.21,0,0,1-.81-2.4l62.6-212.92-252-71.56a2.21,2.21,0,0,1-1.38-1.14,2.25,2.25,0,0,1-.08-1.78l29.94-77.15a2.21,2.21,0,0,1,1.81-1.39c11.26-1.31,276.8-31.3,358.33,39.29,34.77,30.09,23.55,103-33.33,216.71-42.06,84.08-94.8,160.49-95.33,161.26a2.23,2.23,0,0,1-1.46.92Zm-64.1-52.5,63.57,47.14c17.52-25.75,204.14-304.42,128.12-370.22-77.2-66.83-332.85-40.64-353.61-38.39l-28.58,73.63L893,1769.25a2.2,2.2,0,0,1,1.51,2.75Z"/><path class="cls-1" d="M1026.49,1220l-71.62,38.66S911,1373.14,848.14,1380s-125-80-125-80l-41.71,89.24s61.24,94.71,158.38,79.44,123.6-161.17,123.6-161.17,23,2.28,31.67-20.15c7.39-19.1,4.3-30.34,4.3-30.34S1033.89,1238.62,1026.49,1220Z"/><path class="cls-3" d="M818.91,1472.56c-85.18,0-138.77-81.21-139.34-82.1a2.21,2.21,0,0,1-.15-2.13l41.72-89.25a2.22,2.22,0,0,1,3.8-.35c.61.86,62.15,85.83,123,79.11s104.47-118.84,104.91-120a2.23,2.23,0,0,1,1-1.15l71.62-38.65a2.19,2.19,0,0,1,3.1,1.13c7.21,18.13-19.94,35.12-26.68,39,.6,4,1.27,14.51-4.72,30-6.27,16.21-19.64,20.32-27,21.33a40,40,0,0,1-4.89.37A332,332,0,0,1,940,1383.36c-24.88,50.9-59.41,81.17-99.87,87.53A137.08,137.08,0,0,1,818.91,1472.56ZM684,1389.06c6.94,10,66.29,91.5,155.5,77.46,94.45-14.84,121.51-157.94,121.77-159.39a2.21,2.21,0,0,1,1.82-1.78,2.27,2.27,0,0,1,.78,0c1.11.1,21.38,1.39,29.19-18.78,7-18,4.26-28.86,4.23-29a2.23,2.23,0,0,1,1.09-2.53c.31-.16,29.6-16,26.79-31.84l-68.49,37c-4.29,10.92-46.83,115.28-108.26,122-57.41,6.27-113-62.29-124.81-77.93Z"/><path class="cls-3" d="M961.37,1297.56a2.22,2.22,0,0,1-.66-4.33c.12,0,12-3.86,13.38-13.47.92-6.64,4.76-11.66,7.81-14.7a14.86,14.86,0,0,0,4.39-10.13l-21.12,8.42a2.21,2.21,0,1,1-1.63-4.11l24.15-9.63a2.22,2.22,0,0,1,3,2.06v2.77a19.27,19.27,0,0,1-5.7,13.75c-2.57,2.57-5.8,6.76-6.55,12.18-1.72,12.42-15.85,16.9-16.45,17.09A2.5,2.5,0,0,1,961.37,1297.56Z"/><path class="cls-5" d="M393.83,1450.14s5.5-52.47,9-87.21c7.76-77.1,95.32-102.57,95.32-102.57l.09.52c.45-.12.88-.26,1.33-.37,31.5-7.4,44.64-7.5,159.12-3.35a39.76,39.76,0,0,1,7.54,1c53,6,113.16,81.8,113.16,81.8,57.63,23.48,107.88,5.92,153.89-35.33l25.54,24.59c-28.53,142.59-116.16,176-255.29,114.28.55,44.44,10.45,94.31,41.44,138.79a222.46,222.46,0,0,0,43,46c-10.66,8.63-59.82,3.71-82.07,10.32-36.94,11-30.78,2.9-60.55,3.79-78.74,2.34-99.74,102.39-150.6,91.37-13.58-2.94-31.58-13.53-48.46-49.06a545.52,545.52,0,0,1-22.75-234.94Z"/><path class="cls-4" d="M510.41,1471.18c-18,123.92-83.07,147.2-135.27,123.92-46.36-41.62-14.84-174.06,22.7-228,3.7,12.17,37.21,52,36,82.94-1.79,43.81,7.57,62.44,29.64,18.29Z"/><path class="cls-5" d="M831.69,1439.71a122.48,122.48,0,0,1,42,29.17,29.4,29.4,0,0,0,32.95,7.14c40.81-17.11,87.68-17.65,129.84,2.44,80.5,38.37,98.33,132.27,58.38,216.08s-122.54,125.8-203,87.43a156.53,156.53,0,0,1-72.18-70.4A34.42,34.42,0,0,0,786,1692.83a122.72,122.72,0,0,1-63-11.55c-64.29-30.64-99.91-96.76-56.55-177C720.89,1403.6,770.35,1413.93,831.69,1439.71Z"/><path class="cls-1" d="M831.15,1423.27a122.43,122.43,0,0,1,42,29.17,29.4,29.4,0,0,0,33,7.14c40.81-17.11,87.68-17.65,129.84,2.45,80.5,38.36,98.33,132.26,58.38,216.07s-122.54,125.8-203,87.43a156.53,156.53,0,0,1-72.18-70.4,34.45,34.45,0,0,0-33.65-18.74,122.69,122.69,0,0,1-63-11.54c-64.29-30.65-99.91-96.76-56.56-177C720.36,1387.16,769.81,1397.49,831.15,1423.27Z"/><path class="cls-5" d="M952.39,1782.14c-20.73,0-41.62-4.88-62-14.61a158.21,158.21,0,0,1-73.18-71.39,32.34,32.34,0,0,0-31.51-17.54,125.47,125.47,0,0,1-64.09-11.76c-35.65-17-61-44-71.47-76s-5.61-67.94,13.92-104.08c55.54-102.8,106.78-91.29,168-65.57a124.21,124.21,0,0,1,42.76,29.7,27.11,27.11,0,0,0,30.48,6.61c42.75-17.92,90.73-17,131.65,2.49,77.35,36.87,102.34,129,59.43,219-20,42-51,74.12-87.4,90.6A136.18,136.18,0,0,1,952.39,1782.14ZM788.31,1674.07a36.75,36.75,0,0,1,32.78,20,153.83,153.83,0,0,0,71.16,69.42c76.24,36.33,158.52.82,200.09-86.39,41.81-87.73,17.7-177.36-57.34-213.13-39.78-19-86.45-19.83-128-2.4a31.48,31.48,0,0,1-35.41-7.67,120,120,0,0,0-41.25-28.64c-33.22-14-58.82-21.34-83.81-15-28.53,7.21-53.51,32.19-78.59,78.62-18.94,35-23.64,69.84-13.61,100.61s34.62,56.87,69.17,73.34a121.18,121.18,0,0,0,61.83,11.34C786.3,1674.11,787.31,1674.07,788.31,1674.07Z"/><rect class="cls-1" x="576.16" y="1269.09" width="49.11" height="369" transform="translate(2171.98 1523.71) rotate(115.01)"/><path class="cls-1" d="M461.32,1362.05l-22.87-25-83.53-23.92c-18.66,8.66-24.82,24.63-22.24,45.73l74.9,47.52,32.93-2.32Z"/><path class="cls-5" d="M407.58,1408.58a2.22,2.22,0,0,1-1.18-.34l-74.9-47.52a2.23,2.23,0,0,1-1-1.6c-2.85-23.3,5.05-39.44,23.5-48a2.08,2.08,0,0,1,1.53-.12l83.53,23.92a2.2,2.2,0,0,1,1,.63l22.87,25a2.19,2.19,0,0,1,.35,2.47l-20.81,42a2.19,2.19,0,0,1-1.82,1.22l-32.93,2.33Zm-72.83-51,73.4,46.57,31-2.19,19.57-39.51L437.24,1339l-82.13-23.51C339.17,1323.19,332.51,1337,334.75,1357.55Z"/><path class="cls-5" d="M344.27,1378.66a4.89,4.89,0,0,0-.6-6.89l-.54-.45a4.89,4.89,0,0,0-6.29,7.49l.55.45A4.87,4.87,0,0,0,344.27,1378.66Z"/><rect class="cls-5" x="344.06" y="1359.14" width="3.78" height="17.66" transform="translate(-271.45 2636.76) rotate(-139.86)"/><path class="cls-5" d="M362.9,1392.75a4.89,4.89,0,0,0-.6-6.89l-.55-.46a4.89,4.89,0,0,0-6.28,7.49l.54.46A4.9,4.9,0,0,0,362.9,1392.75Z"/><rect class="cls-5" x="362.68" y="1373.22" width="3.78" height="17.66" transform="translate(-247.66 2673.62) rotate(-139.86)"/><path class="cls-5" d="M383.41,1409.53a4.9,4.9,0,0,0-.6-6.89l-.55-.45a4.88,4.88,0,1,0-6.28,7.48l.54.46A4.89,4.89,0,0,0,383.41,1409.53Z"/><rect class="cls-5" x="383.19" y="1390.01" width="3.78" height="17.66" transform="translate(-222.27 2716.47) rotate(-139.86)"/><path class="cls-5" d="M379.56,1305a4.87,4.87,0,0,1-6.31,2.82l-.66-.25a4.89,4.89,0,0,1,3.49-9.13l.66.25A4.89,4.89,0,0,1,379.56,1305Z"/><polygon class="cls-5" points="372.4 1302.67 375.93 1304.05 369.67 1320.56 366.13 1319.18 372.4 1302.67"/><path class="cls-5" d="M403.53,1312.64a4.88,4.88,0,0,1-6.31,2.81l-.67-.25a4.89,4.89,0,1,1,3.5-9.13l.66.25A4.9,4.9,0,0,1,403.53,1312.64Z"/><rect class="cls-5" x="393.1" y="1310.47" width="3.78" height="17.66" transform="translate(295.98 2692.89) rotate(-159.21)"/><path class="cls-5" d="M432.29,1321a4.88,4.88,0,0,1-6.31,2.82l-.66-.25a4.89,4.89,0,0,1,3.49-9.13l.66.25A4.89,4.89,0,0,1,432.29,1321Z"/><rect class="cls-5" x="421.87" y="1318.86" width="3.78" height="17.66" transform="translate(348.64 2719.34) rotate(-159.21)"/><path class="cls-4" d="M779.36,1599.93q-1.29,0-2.58-.06a57.31,57.31,0,1,1,2.58.06Zm-.09-110.36a53.37,53.37,0,1,0,2.41.06C780.88,1489.59,780.07,1489.57,779.27,1489.57Z"/><circle class="cls-4" cx="778.69" cy="1543.12" r="48.26" transform="translate(-816.71 2208.16) rotate(-85.85)"/><path class="cls-5" d="M979.67,1611.44a2.13,2.13,0,0,1-.95-.22L825.54,1538.5a2.21,2.21,0,1,1,1.9-4l153.17,72.72a2.21,2.21,0,0,1-.94,4.21Z"/><path class="cls-5" d="M826.49,1538.72a2.16,2.16,0,0,1-1-.22l-70.32-33.38a2.21,2.21,0,0,1,1.9-4l70.32,33.39a2.21,2.21,0,0,1-1,4.21Z"/><path class="cls-5" d="M756.17,1505.33a2.3,2.3,0,0,1-.95-.21L416.74,1344.43a2.21,2.21,0,0,1,1.9-4l338.48,160.69a2.21,2.21,0,0,1-1,4.21Z"/><path class="cls-5" d="M979.08,1624.67a2.13,2.13,0,0,1-1-.22l-153.41-73.2a2.21,2.21,0,1,1,1.9-4L980,1620.46a2.21,2.21,0,0,1-.95,4.21Z"/><path class="cls-5" d="M825.67,1551.46a2.26,2.26,0,0,1-.95-.21l-80.28-38.31a2.21,2.21,0,0,1,1.9-4l80.28,38.31a2.21,2.21,0,0,1-1,4.2Z"/><path class="cls-5" d="M745.39,1513.16a2.16,2.16,0,0,1-.95-.22L390.86,1344.22a2.21,2.21,0,0,1,1.91-4L746.34,1509a2.21,2.21,0,0,1-1,4.21Z"/><path class="cls-5" d="M974.88,1634a2.21,2.21,0,0,1-1-.22l-152.15-72.67a2.21,2.21,0,0,1,1.91-4l152.15,72.67a2.21,2.21,0,0,1-1,4.21Z"/><path class="cls-5" d="M822.72,1561.28a2.16,2.16,0,0,1-1-.22l-84.51-40.36a2.21,2.21,0,0,1,1.91-4l84.51,40.36a2.21,2.21,0,0,1-1,4.21Z"/><path class="cls-5" d="M738.21,1520.91a2.3,2.3,0,0,1-1-.21L358.86,1340a2.21,2.21,0,1,1,1.9-4l378.41,180.75a2.21,2.21,0,0,1-1,4.2Z"/><path class="cls-5" d="M972.4,1647.1a2.13,2.13,0,0,1-.95-.22L816.92,1573.3a2.21,2.21,0,0,1,1.9-4l154.53,73.59a2.21,2.21,0,0,1-1,4.21Z"/><path class="cls-5" d="M817.87,1573.51a2.3,2.3,0,0,1-1-.21l-83.45-39.75a2.21,2.21,0,1,1,1.9-4l83.45,39.74a2.21,2.21,0,0,1-1,4.21Z"/><path class="cls-5" d="M734.42,1533.77a2.16,2.16,0,0,1-.95-.22l-354.26-168.7a2.21,2.21,0,0,1,1.9-4l354.26,168.7a2.21,2.21,0,0,1-1,4.21Z"/><path class="cls-5" d="M962.44,1658a2.21,2.21,0,0,1-1-.22l-155.65-75.21a2.21,2.21,0,0,1,1.92-4l155.65,75.21a2.21,2.21,0,0,1-1,4.2Z"/><path class="cls-5" d="M806.79,1582.81a2.21,2.21,0,0,1-1-.22l-74.94-36.21a2.21,2.21,0,1,1,1.93-4l74.93,36.21a2.21,2.21,0,0,1-1,4.2Z"/><path class="cls-5" d="M731.85,1546.6a2.21,2.21,0,0,1-1-.22L398.78,1385.92a2.21,2.21,0,1,1,1.93-4L732.82,1542.4a2.21,2.21,0,0,1-1,4.2Z"/><polygon class="cls-5" points="930.01 1707.33 945.14 1713.64 968.55 1686.78 1013.18 1589.75 1013.1 1550.65 997.97 1544.34 930.01 1707.33"/><rect class="cls-1" x="445.26" y="1356.84" width="8.51" height="52.93" transform="translate(265.27 2826.09) rotate(-154.72)"/><path class="cls-4" d="M442.07,1411.26a2.3,2.3,0,0,1-.95-.21l-7.69-3.64a2.21,2.21,0,0,1-1.06-2.94l22.6-47.86a2.22,2.22,0,0,1,2.95-1l7.69,3.63a2.21,2.21,0,0,1,1.06,2.94L444.07,1410A2.21,2.21,0,0,1,442.07,1411.26Zm-4.76-6.9,3.7,1.74,20.72-43.85-3.7-1.75Z"/><path class="cls-1" d="M509.47,1478.43l35.87-46.51c-1-7.47-3.06-13.77-11.24-9.54L521,1426.71v-41.62c0-7-4.53-8.11-10-5l-22.5,36c-5.14-3.9-9.93-4.35-14.41.63l-10.67,51.72Z"/><path class="cls-4" d="M509.47,1480.64a2.42,2.42,0,0,1-.47-.05l-46.09-10.09a2.22,2.22,0,0,1-1.7-2.61l10.68-51.71a2.2,2.2,0,0,1,.52-1c3.15-3.51,8.29-6.55,15.39-2.27l21.29-34a2.33,2.33,0,0,1,.8-.76c3.76-2.1,7.21-2.46,9.72-1,1.63,1,3.57,3.12,3.57,8v38.56l10.07-3.32c3.42-1.73,6.34-2,8.7-.76,3.79,2,4.95,7.21,5.58,12.06a2.19,2.19,0,0,1-.44,1.64l-35.87,46.51A2.2,2.2,0,0,1,509.47,1480.64Zm-43.48-14,42.58,9.32L543,1431.3c-.33-2.36-1.15-6.78-3.12-7.81-1.29-.67-3.31.09-4.78.85a1.92,1.92,0,0,1-.33.14l-13.12,4.33a2.21,2.21,0,0,1-2.91-2.1v-41.62c0-2.15-.49-3.63-1.39-4.15s-2.77-.29-4.84.78l-22.2,35.45a2.2,2.2,0,0,1-3.21.58c-4.45-3.38-7.78-3.42-11-.07Z"/><path class="cls-3" d="M561.16,1191.44c-8.22,4.14-14.41,4.74-18.87,4.48-16.13-.93-26.47-13.92-28.54-16.53-10.69-13.43-15.84-35.5-6.78-48.45,6.53-9.33,14.74-5.82,22.25-16.25,8.53-11.84-.21-21.51,7.65-31.87,9.06-11.94,29-11,32.61-10.86,12.32.56,13.79,6.67,25.43,6.35,11.89-.32,13.46-6.29,24.37-6.35,8.67,0,21.3,3.64,27,13.66,7.1,12.58-.16,29.15-8.6,37.9-10.12,10.5-17.25,4.87-31.43,13.42C581.64,1151.76,587.51,1178.16,561.16,1191.44Z"/><path class="cls-1" d="M606.92,1247.37,600.27,1206c1.46-.16,13.71-2.3,15.12-3,11.34-5.65,8.19-34.12,8.19-34.12l6.3-7.54-18.81-42.1c-20,16.65-27.11.3-46.88,8.49s-9.05,30.21-9.05,30.21-16.16-7.12-12.7,8.51c2.6,11.81,11.2,12.55,16.87,12.07l-10.54,71s-33.93,9.64-40.49,11.38c8.54-.4,67.57,25.27,134.53-2.79Z"/><path class="cls-3" d="M576.51,1273.39c-25.71,0-46.6-5.28-58.52-8.3-4.45-1.12-8.32-2.08-9.61-2a2.21,2.21,0,0,1-.67-4.35c5.72-1.51,32.66-9.15,39.08-11l9.94-66.94c-11-.16-15-7.5-16.45-13.89-1.16-5.23-.43-9,2.16-11.08s6.17-1.95,9-1.36c-1.29-4.27-2.48-11-.11-17.24,2-5.2,6-9.09,12-11.56,9.12-3.78,15.85-2.66,21.79-1.66,7.48,1.25,13.94,2.33,24.53-6.49a2.2,2.2,0,0,1,3.43.79l18.81,42.11a2.2,2.2,0,0,1-.32,2.32l-5.71,6.82c.53,5.72,2,29.66-9.5,35.4-1.46.73-9.51,2.18-13.57,2.86l6.08,37.83,34.56,10.3a2.21,2.21,0,0,1,.23,4.15A172.54,172.54,0,0,1,576.51,1273.39Zm-58.65-12.89,1.22.31c20,5.06,65.95,16.68,117-2.45l-29.78-8.87a2.19,2.19,0,0,1-1.55-1.77l-6.66-41.39a2.22,2.22,0,0,1,1.94-2.55c1.64-.18,13-2.2,14.43-2.79,8.11-4,7.76-24.4,6.93-31.89a2.26,2.26,0,0,1,.5-1.66l5.42-6.48-17.09-38.25c-10.9,8.15-18.47,6.89-25.81,5.66-5.87-1-11.42-1.91-19.37,1.38-4.78,2-8,5-9.5,9-3.13,8.22,1.55,18.08,1.6,18.18a2.22,2.22,0,0,1-2.88,3c-2.1-.92-7.07-2.3-9-.7-1.16,1-1.39,3.34-.65,6.71,1.72,7.74,6.34,11,14.53,10.34a2.12,2.12,0,0,1,1.8.69,2.2,2.2,0,0,1,.57,1.83l-10.54,71a2.2,2.2,0,0,1-1.58,1.81C549.12,1251.67,530.09,1257.07,517.86,1260.5Z"/><path class="cls-3" d="M595.65,1208.51a30,30,0,0,1-25.37-13.6,2.21,2.21,0,0,1,3.81-2.25c.35.58,8.29,13.53,25.88,11.13a2.21,2.21,0,0,1,.6,4.38A35.51,35.51,0,0,1,595.65,1208.51Z"/><polygon class="cls-1" points="986.56 2044.97 1046.71 2105.4 1078.6 2093.69 1023.15 2016.38 986.56 2044.97"/><path class="cls-3" d="M1046.71,2107.61a2.2,2.2,0,0,1-1.57-.65L985,2046.53a2.2,2.2,0,0,1-.64-1.7,2.18,2.18,0,0,1,.84-1.6l36.59-28.6a2.28,2.28,0,0,1,1.68-.44,2.19,2.19,0,0,1,1.48.9l55.44,77.31a2.21,2.21,0,0,1-1,3.37l-31.89,11.71A2.17,2.17,0,0,1,1046.71,2107.61Zm-56.82-62.44,57.39,57.67,27.83-10.22-52.41-73.08Z"/><path class="cls-3" d="M1027.71,2096s-2.91,25.71,2,48.43a26.45,26.45,0,0,0,25.93,20.62h147.62a11.29,11.29,0,0,0,7.25-19.95c-26.25-22-74.54-55.57-133.9-65.42l-16.56,23.17Z"/><path class="cls-1" d="M1196.26,2146.92h-153a2.22,2.22,0,0,1,0-4.43h153a2.22,2.22,0,0,1,0,4.43Z"/><path class="cls-1" d="M1110.9,2119.74a2.34,2.34,0,0,1-.85-.17,2.23,2.23,0,0,1-1.2-2.89L1117,2097a2.21,2.21,0,1,1,4.09,1.69l-8.1,19.64A2.21,2.21,0,0,1,1110.9,2119.74Z"/><path class="cls-1" d="M1137.52,2124.9a2.07,2.07,0,0,1-.69-.11,2.21,2.21,0,0,1-1.41-2.79l5.86-17.72a2.21,2.21,0,1,1,4.2,1.38l-5.86,17.72A2.2,2.2,0,0,1,1137.52,2124.9Z"/><path class="cls-4" d="M518.23,1757.24c39.93,12.67,111.38,29,211.24,27.69a74.51,74.51,0,0,1,67.45,40.57c29.58,58,93.6,162.45,197.88,230.14l49.81-26.83L917.49,1742.66a105.61,105.61,0,0,0-60.15-56.28L605.4,1594s-60.94-14.29-103.43,53C486.84,1670.94,483.93,1746.35,518.23,1757.24Z"/><path class="cls-4" d="M994.8,2057.85a2.24,2.24,0,0,1-1.2-.35c-105.16-68.27-169.6-174-198.65-231a71.82,71.82,0,0,0-65.45-39.36c-98.53,1.32-169.64-14.37-211.94-27.8-10.08-3.19-18-11.95-22.87-25.33-10.2-28-5.38-71.12,5.41-88.21,42.83-67.82,105.18-54.1,105.81-54a1,1,0,0,1,.25.08l251.94,92.38a108.39,108.39,0,0,1,61.41,57.45l127.12,286.15a2.21,2.21,0,0,1-1,2.84l-49.81,26.84A2.3,2.3,0,0,1,994.8,2057.85ZM730.52,1782.71a76.24,76.24,0,0,1,68.37,41.79c28.75,56.37,92.38,160.85,196,228.57l46.85-25.24L915.47,1743.55a104,104,0,0,0-58.89-55.09l-251.79-92.33c-3-.63-60.73-11.66-100.95,52-10.27,16.26-14.79,57.51-5,84.34,4.46,12.21,11.2,19.82,20,22.63,42,13.32,112.57,28.93,210.54,27.59Z"/><path class="cls-1" d="M1482.76,480.27l61.53-30.66a632.6,632.6,0,0,0,138.09-93.3L1698,342.43c8.13-7.23,20.7-6.83,28.94.9a703.91,703.91,0,0,0,162.29,114.13l41.83,21.31c9.72,5,14.51,16.18,11.19,26.23l-44.86,225.51c-20.88,63.09-112.53,148.31-163.71,192.25-19.82,17-50,15.5-69.46-3.43-49.38-48.1-136.35-140.68-156.07-213.59l-35.87-201.57A20.49,20.49,0,0,1,1482.76,480.27Z"/><path class="cls-5" d="M1522.32,507.05l51-25.39a523.56,523.56,0,0,0,114.33-77.25l12.93-11.49c6.73-6,17.14-5.66,24,.75a583,583,0,0,0,134.38,94.49l34.64,17.65a18.19,18.19,0,0,1,9.25,21.71l-37.13,186.72c-17.29,52.24-93.18,122.79-135.56,159.18-16.4,14.09-41.41,12.83-57.5-2.84-40.89-39.83-112.89-116.49-129.23-176.85l-29.69-166.9A16.94,16.94,0,0,1,1522.32,507.05Z"/><path class="cls-4" d="M1701.41,936.69a55.58,55.58,0,0,1-38.73-15.77c-50-48.71-136.84-141.34-156.67-214.61L1496.7,654a2.21,2.21,0,1,1,4.35-.77l9.27,52.1c19.51,72.06,105.77,164,155.45,212.4,18.48,18,47.68,19.47,66.47,3.34,52-44.66,142.3-128.84,163-191.14l44.83-225.38a2,2,0,0,1,.07-.26c3-9-1.36-19.12-10.09-23.57l-41.83-21.31a705.39,705.39,0,0,1-162.81-114.49c-7.34-6.89-18.74-7.27-26-.86L1683.85,358a634.72,634.72,0,0,1-138.57,93.62l-61.53,30.67a18.19,18.19,0,0,0-9.33,21.34l15.43,86.69a2.21,2.21,0,0,1-4.35.77l-15.39-86.5a22.51,22.51,0,0,1,11.66-26.26l61.53-30.66a630.09,630.09,0,0,0,137.61-93l15.62-13.88c9-8,22.78-7.65,31.92.94a700.91,700.91,0,0,0,161.79,113.77l41.83,21.31c10.61,5.41,15.89,17.75,12.32,28.76l-44.83,225.38a2.68,2.68,0,0,1-.07.27c-21,63.33-112,148.25-164.37,193.23A51.49,51.49,0,0,1,1701.41,936.69Z"/><path class="cls-1" d="M1604.88,580.5V672c0,27.54,45.93,49.86,102.58,49.86S1810,699.5,1810,672V580.5Z"/><path class="cls-4" d="M1815.76,560.08l-105.23-44.53a9.24,9.24,0,0,0-6.14,0l-105.23,44.53h-41.89v10.16a3.16,3.16,0,0,0,2.14,3l145,51.65a9.12,9.12,0,0,0,6.14,0l145-51.65a3.18,3.18,0,0,0,2.14-3V560.08Z"/><path class="cls-1" d="M1855.51,557l-145-51.65a9.12,9.12,0,0,0-6.14,0l-145,51.65a3.22,3.22,0,0,0,0,6.07l145,51.66a9.24,9.24,0,0,0,6.14,0l145-51.66A3.22,3.22,0,0,0,1855.51,557Z"/><path class="cls-1" d="M1789.76,634.33a5.46,5.46,0,0,0-5.45,5.09l-5.57,80.7h22l-5.56-80.7A5.46,5.46,0,0,0,1789.76,634.33Z"/><path class="cls-4" d="M1800.77,722.33h-22a2.22,2.22,0,0,1-1.61-.7,2.18,2.18,0,0,1-.59-1.66l5.56-80.7a7.67,7.67,0,0,1,15.31,0L1803,720a2.22,2.22,0,0,1-.59,1.66A2.24,2.24,0,0,1,1800.77,722.33Zm-19.66-4.42h17.29l-5.4-78.34a3.25,3.25,0,0,0-6.49,0Z"/><path class="cls-4" d="M1789.76,635.53a2.21,2.21,0,0,1-2.21-2.21V592.2l-80.86-30.05a2.21,2.21,0,0,1,1.54-4.14l82.3,30.58a2.22,2.22,0,0,1,1.44,2.07v42.66A2.21,2.21,0,0,1,1789.76,635.53Z"/><path class="cls-5" d="M1465.86,1223a2.21,2.21,0,0,1-.18-4.42,62.88,62.88,0,0,0,24.43-7.14,2.21,2.21,0,0,1,2.09,3.9,67.46,67.46,0,0,1-26.14,7.65Zm-26.28-2.39a2.22,2.22,0,0,1-.57-.07,85.24,85.24,0,0,1-24.79-11,2.21,2.21,0,1,1,2.41-3.7,81.3,81.3,0,0,0,23.51,10.44,2.21,2.21,0,0,1-.56,4.34Zm292-4.34a2.21,2.21,0,0,1-2.19-1.89,132.59,132.59,0,0,0-6.32-25.27,2.21,2.21,0,1,1,4.16-1.48,137.48,137.48,0,0,1,6.54,26.11,2.22,2.22,0,0,1-1.87,2.51A1.77,1.77,0,0,1,1731.55,1216.24Zm-219.41-16.71a2.22,2.22,0,0,1-1.59-3.75,101,101,0,0,0,15.36-20.84,2.21,2.21,0,0,1,3.86,2.16,105.66,105.66,0,0,1-16,21.75A2.2,2.2,0,0,1,1512.14,1199.53ZM1396,1192a2.21,2.21,0,0,1-1.76-.88,67.07,67.07,0,0,1-11.8-24.54,2.21,2.21,0,0,1,4.3-1.06,62.72,62.72,0,0,0,11,22.93,2.22,2.22,0,0,1-.44,3.1A2.18,2.18,0,0,1,1396,1192Zm318-25.45a2.2,2.2,0,0,1-1.92-1.12,160.67,160.67,0,0,0-14.81-21.54,2.21,2.21,0,0,1,3.44-2.79,165.74,165.74,0,0,1,15.21,22.14,2.22,2.22,0,0,1-1.92,3.31Zm-175.77-12.63a2.16,2.16,0,0,1-.66-.1,2.2,2.2,0,0,1-1.45-2.77,146,146,0,0,0,5.46-25.53,2.21,2.21,0,0,1,4.39.54,150.12,150.12,0,0,1-5.63,26.31A2.21,2.21,0,0,1,1538.25,1153.87Zm-154.46-12a2.19,2.19,0,0,1-.36,0,2.21,2.21,0,0,1-1.82-2.55,78.37,78.37,0,0,1,9.13-25.57,2.21,2.21,0,0,1,3.86,2.17A74,74,0,0,0,1386,1140,2.22,2.22,0,0,1,1383.79,1141.89Zm297-16.43a2.2,2.2,0,0,1-1.48-.57,165,165,0,0,0-17-13.37q-1.87-1.29-3.77-2.52a2.21,2.21,0,0,1,2.41-3.71q1.93,1.26,3.86,2.58a168.93,168.93,0,0,1,17.45,13.73,2.21,2.21,0,0,1-1.47,3.86Zm-136-24a2.22,2.22,0,0,1-2.21-2.1,146.68,146.68,0,0,0-3.31-24.82l-.24-1a2.21,2.21,0,1,1,4.31-1l.25,1.07a151.47,151.47,0,0,1,3.41,25.57,2.21,2.21,0,0,1-2.1,2.32Zm91.78-5a2.3,2.3,0,0,1-1-.21,233.11,233.11,0,0,0-24.33-9.91,2.21,2.21,0,0,1,1.45-4.18,236.49,236.49,0,0,1,24.78,10.1,2.2,2.2,0,0,1-1,4.2Zm-227.61-.23a2.21,2.21,0,0,1-1.53-3.81,98.2,98.2,0,0,1,21.92-15.87,2.21,2.21,0,0,1,2.07,3.91,93.48,93.48,0,0,0-20.93,15.15A2.22,2.22,0,0,1,1408.94,1096.2Zm177.6-17.21a1.86,1.86,0,0,1-.52-.07c-8.11-2-16.8-3.77-25.83-5.31a2.21,2.21,0,0,1,.74-4.36c9.13,1.56,17.93,3.36,26.14,5.38a2.21,2.21,0,0,1-.53,4.36Zm-131.39-7.56a2.21,2.21,0,0,1-.52-4.36,149.44,149.44,0,0,1,26.6-3.93,2.21,2.21,0,1,1,.27,4.41,144.48,144.48,0,0,0-25.81,3.82A2.48,2.48,0,0,1,1455.15,1071.43Zm79.15-1.51H1534c-1.4-.17-2.8-.32-4.2-.47-8.25-.91-15.47-1.52-22.08-1.87a2.21,2.21,0,0,1-2.09-2.33,2.26,2.26,0,0,1,2.33-2.09c6.69.36,14,1,22.32,1.89l4.23.48a2.21,2.21,0,0,1-.25,4.4Zm-1-20a2.2,2.2,0,0,1-2.06-1.4A186.74,186.74,0,0,0,1520,1024.9a2.21,2.21,0,1,1,3.84-2.19,191,191,0,0,1,11.58,24.18,2.21,2.21,0,0,1-1.25,2.87A2.06,2.06,0,0,1,1533.32,1049.91Zm-26-46a2.2,2.2,0,0,1-1.77-.88,218.44,218.44,0,0,0-17.06-20,2.21,2.21,0,0,1,3.19-3.07,225.63,225.63,0,0,1,17.4,20.35,2.22,2.22,0,0,1-1.76,3.55Zm-36.68-38.19a2.19,2.19,0,0,1-1.41-.5,248.53,248.53,0,0,0-21.1-15.68,2.21,2.21,0,1,1,2.45-3.68A251.3,251.3,0,0,1,1472,961.78a2.21,2.21,0,0,1-1.41,3.91Zm-44.11-29.3a2.09,2.09,0,0,1-1-.26c-7.58-4-15.61-7.73-23.84-11.18a2.21,2.21,0,1,1,1.71-4.08c8.35,3.5,16.49,7.31,24.18,11.35a2.21,2.21,0,0,1-1,4.17Z"/><path class="cls-5" d="M694.8,1215.08a2.21,2.21,0,0,1-2.2-2c-.63-7.47-1-15.12-1-22.75,0-1.32,0-2.64,0-4a2.17,2.17,0,0,1,2.24-2.18,2.22,2.22,0,0,1,2.18,2.25q0,1.95,0,3.9c0,7.5.32,15,1,22.38a2.22,2.22,0,0,1-2,2.39Zm.72-53h-.24a2.22,2.22,0,0,1-2-2.44c.95-8.78,2.32-17.66,4.08-26.41a2.21,2.21,0,1,1,4.33.87c-1.72,8.62-3.08,17.37-4,26A2.21,2.21,0,0,1,695.52,1162.11Zm10.4-52a2.28,2.28,0,0,1-.63-.09,2.21,2.21,0,0,1-1.5-2.74c2.49-8.51,5.39-17,8.61-25.29a2.21,2.21,0,0,1,4.12,1.6c-3.17,8.16-6,16.55-8.48,24.93A2.23,2.23,0,0,1,705.92,1110.15Zm19.22-49.39a2.3,2.3,0,0,1-1-.23,2.21,2.21,0,0,1-1-3c3.94-8,8.27-15.89,12.85-23.43a2.21,2.21,0,1,1,3.78,2.3c-4.52,7.43-8.78,15.2-12.67,23.08A2.21,2.21,0,0,1,725.14,1060.76Zm27.58-45.25a2.25,2.25,0,0,1-1.32-.44,2.22,2.22,0,0,1-.46-3.09q1.54-2.07,3.12-4.11c4.36-5.64,9-11.23,13.76-16.6a2.21,2.21,0,1,1,3.31,2.93c-4.71,5.3-9.27,10.81-13.58,16.37q-1.54,2-3.06,4A2.19,2.19,0,0,1,752.72,1015.51Zm35.16-39.66a2.21,2.21,0,0,1-1.52-3.81c6.36-6.08,13.1-12,20-17.65a2.21,2.21,0,1,1,2.79,3.43c-6.83,5.56-13.48,11.42-19.76,17.42A2.21,2.21,0,0,1,787.88,975.85Z"/><path class="cls-5" d="M486.57,831.73a2.19,2.19,0,0,1-2.07-3,658.56,658.56,0,0,1,372-375,2.21,2.21,0,1,1,1.62,4.11A654.18,654.18,0,0,0,488.63,830.32,2.21,2.21,0,0,1,486.57,831.73Z"/><path class="cls-5" d="M408.4,864.31a2.43,2.43,0,0,1-.7-.11,2.21,2.21,0,0,1-1.39-2.8A737.69,737.69,0,0,1,522.11,645,753.49,753.49,0,0,1,710.93,472a2.21,2.21,0,1,1,2.4,3.72C571.14,567.33,463.6,704.81,410.5,862.8A2.21,2.21,0,0,1,408.4,864.31Z"/><path class="cls-5" d="M888.38,470.52a2.3,2.3,0,0,1-.45,0,2.2,2.2,0,0,1-1.65-1.47l-10.66-32.2a2.22,2.22,0,0,1,2.9-2.76l29.29,11.31a2.2,2.2,0,0,1,.86,3.53L890,469.78A2.25,2.25,0,0,1,888.38,470.52Zm-7.09-30.67,8,24.13,14-15.66Z"/><path class="cls-5" d="M1417.39,436.09a2.21,2.21,0,0,1-2.14-1.67l-3-11.59a2.21,2.21,0,1,1,4.29-1.09l3,11.59a2.22,2.22,0,0,1-1.6,2.69A2.67,2.67,0,0,1,1417.39,436.09Z"/><path class="cls-5" d="M1407.08,395.52a2.21,2.21,0,0,1-2.14-1.67l-3-11.59a2.21,2.21,0,1,1,4.29-1.09l2.94,11.59a2.21,2.21,0,0,1-1.6,2.69A2,2,0,0,1,1407.08,395.52Z"/><path class="cls-5" d="M1425.25,406.34a2.21,2.21,0,0,1-.54-4.36l11.6-2.93a2.21,2.21,0,0,1,1.08,4.28l-11.59,2.94A2.08,2.08,0,0,1,1425.25,406.34Z"/><path class="cls-5" d="M1384.68,416.61a2.21,2.21,0,0,1-.54-4.35l11.59-2.94a2.21,2.21,0,0,1,1.08,4.29l-11.59,2.94A2.48,2.48,0,0,1,1384.68,416.61Z"/><path class="cls-5" d="M1336.06,406.7a20.18,20.18,0,1,1,5-.63A19.93,19.93,0,0,1,1336.06,406.7Zm0-35.74a15.65,15.65,0,1,0,3.85,30.83,15.66,15.66,0,0,0-3.85-30.83Z"/><path class="cls-5" d="M378.86,990.29a14,14,0,1,1,12-6.82A13.92,13.92,0,0,1,378.86,990.29Zm0-23.52a9.62,9.62,0,0,0-2.37.3,9.55,9.55,0,0,0-6.9,11.6,9.54,9.54,0,1,0,9.27-11.9Zm-10.12,3.53h0Z"/><path class="cls-5" d="M370.86,1050.54a2.2,2.2,0,0,1-1.56-.65l-9.65-9.64a2.21,2.21,0,0,1,3.13-3.12l9.64,9.64a2.19,2.19,0,0,1,0,3.12A2.21,2.21,0,0,1,370.86,1050.54Z"/><path class="cls-5" d="M404.62,1084.27a2.24,2.24,0,0,1-1.57-.65l-9.64-9.64a2.21,2.21,0,0,1,3.13-3.12l9.64,9.63a2.22,2.22,0,0,1-1.56,3.78Z"/><path class="cls-5" d="M361.21,1084.27a2.22,2.22,0,0,1-1.56-3.78l9.65-9.63a2.21,2.21,0,0,1,3.12,3.12l-9.64,9.64A2.22,2.22,0,0,1,361.21,1084.27Z"/><path class="cls-5" d="M395,1050.54a2.21,2.21,0,0,1-1.56-3.77l9.64-9.64a2.21,2.21,0,0,1,3.13,3.12l-9.64,9.64A2.24,2.24,0,0,1,395,1050.54Z"/></g></svg>