<svg id="Layer_1" data-name="Layer 1" xmlns="http://www.w3.org/2000/svg" viewBox="0 0 22.549 31.89" width="22.549" height="31.89"><defs><style>.cls-1{fill:#1ba2f1;}.cls-2{fill:#0d8dce;}</style></defs><path class="cls-1" d="M2.49 14.432c0 0.093 0.014 0.189 -0.003 0.278 -0.038 0.218 -0.155 0.397 -0.308 0.556 -0.168 0.175 -0.338 0.349 -0.492 0.536 -0.331 0.401 -0.393 0.865 -0.29 1.361 0.021 0.103 0.056 0.203 0.074 0.307a0.427 0.427 0 0 1 -0.02 0.203c-0.176 -0.209 -0.259 -0.454 -0.299 -0.702 -0.053 -0.336 -0.082 -0.687 0.143 -0.979 0.198 -0.256 0.425 -0.491 0.644 -0.731 0.067 -0.076 0.146 -0.138 0.219 -0.208 0.177 -0.168 0.305 -0.361 0.333 -0.62"/><path class="cls-1" d="M0.985 16.644c-0.332 -0.244 -0.359 -0.589 -0.071 -0.842 0.187 -0.165 0.401 -0.3 0.618 -0.438 -0.383 0.341 -0.71 0.702 -0.547 1.28"/><path class="cls-1" d="M1.74 18.475a1.798 1.798 0 0 0 -0.147 -0.155c-0.25 -0.211 -0.244 -0.423 0.023 -0.614 0.034 -0.024 0.07 -0.043 0.105 -0.065 0.26 -0.164 0.288 -0.405 0.07 -0.626a0.832 0.832 0 0 0 -0.142 -0.097l0.049 -0.051c0.114 0.081 0.236 0.151 0.338 0.246 0.14 0.128 0.138 0.275 0 0.404a2.697 2.697 0 0 1 -0.273 0.207c-0.233 0.166 -0.261 0.395 -0.078 0.61a0.832 0.832 0 0 1 0.076 0.129Z"/><path class="cls-1" d="M1.614 13.92a0.244 0.244 0 0 1 -0.253 -0.248 0.263 0.263 0 0 1 0.254 -0.256 0.265 0.265 0 0 1 0.254 0.255 0.243 0.243 0 0 1 -0.254 0.249"/><path class="cls-1" d="M1.632 15.133c0 -0.316 -0.003 -0.632 0.005 -0.947 0 -0.032 0.067 -0.073 0.109 -0.086 0.019 -0.006 0.082 0.05 0.08 0.074a26.072 26.072 0 0 1 -0.095 0.871c-0.004 0.036 -0.04 0.067 -0.061 0.1Z"/><path class="cls-1" d="M2.003 13.885c0.319 0.128 0.31 0.307 0.22 0.622 -0.038 0.14 -0.16 0.257 -0.265 0.375 0.098 -0.332 0.131 -0.66 0.045 -0.997"/><path class="cls-1" d="M1.58 17.325v-0.926h0.011v0.926Z"/><path class="cls-1" d="M4.535 15.947a0.629 0.629 0 0 1 -0.236 0.154 0.91 0.91 0 0 1 -0.593 -0.009 0.584 0.584 0 0 1 -0.215 -0.145 0.562 0.562 0 0 1 -0.122 -0.211 0.787 0.787 0 0 1 -0.038 -0.247 0.742 0.742 0 0 1 0.042 -0.244 0.618 0.618 0 0 1 0.127 -0.216 0.641 0.641 0 0 1 0.216 -0.154 0.742 0.742 0 0 1 0.31 -0.059 0.697 0.697 0 0 1 0.261 0.049 0.742 0.742 0 0 1 0.233 0.154l-0.222 0.217a0.382 0.382 0 0 0 -0.138 -0.087 0.427 0.427 0 0 0 -0.133 -0.022 0.337 0.337 0 0 0 -0.158 0.033 0.292 0.292 0 0 0 -0.104 0.086 0.36 0.36 0 0 0 -0.058 0.118 0.443 0.443 0 0 0 0 0.251 0.337 0.337 0 0 0 0.057 0.114 0.292 0.292 0 0 0 0.105 0.083 0.36 0.36 0 0 0 0.159 0.032 0.45 0.45 0 0 0 0.149 -0.03 0.405 0.405 0 0 0 0.151 -0.1Z"/><path class="cls-1" d="M4.98 14.842v1.273h-0.329v-1.273Z"/><path class="cls-1" d="M5.845 15.217h0.314V16.115h-0.308l-0.016 -0.097a0.299 0.299 0 0 1 -0.139 0.092 0.45 0.45 0 0 1 -0.156 0.021 0.45 0.45 0 0 1 -0.176 -0.042 0.382 0.382 0 0 1 -0.128 -0.098 0.427 0.427 0 0 1 -0.08 -0.144 0.584 0.584 0 0 1 -0.027 -0.18 0.539 0.539 0 0 1 0.031 -0.186 0.427 0.427 0 0 1 0.088 -0.148 0.427 0.427 0 0 1 0.138 -0.099 0.427 0.427 0 0 1 0.179 -0.036 0.382 0.382 0 0 1 0.162 0.031 0.238 0.238 0 0 1 0.1 0.086Zm-0.205 0.25a0.175 0.175 0 0 0 -0.128 0.052 0.202 0.202 0 0 0 -0.052 0.147 0.193 0.193 0 0 0 0.052 0.145 0.178 0.178 0 0 0 0.128 0.05 0.18 0.18 0 0 0 0.135 -0.058 0.18 0.18 0 0 0 0.038 -0.062 0.202 0.202 0 0 0 0.013 -0.076 0.211 0.211 0 0 0 -0.047 -0.145 0.173 0.173 0 0 0 -0.139 -0.054"/><path class="cls-1" d="m6.653 15.217 0.02 0.099a0.216 0.216 0 0 1 0.094 -0.093 0.281 0.281 0 0 1 0.122 -0.027 0.36 0.36 0 0 1 0.131 0.024 0.292 0.292 0 0 1 0.105 0.071l-0.134 0.242a0.27 0.27 0 0 0 -0.076 -0.042 0.247 0.247 0 0 0 -0.076 -0.011 0.164 0.164 0 0 0 -0.11 0.038 0.16 0.16 0 0 0 -0.045 0.128v0.467h-0.333v-0.896Z"/><path class="cls-1" d="M7.189 14.986a0.157 0.157 0 0 1 0.017 -0.072 0.18 0.18 0 0 1 0.043 -0.053 0.202 0.202 0 0 1 0.06 -0.032 0.225 0.225 0 0 1 0.069 -0.011 0.225 0.225 0 0 1 0.069 0.011 0.18 0.18 0 0 1 0.06 0.032 0.162 0.162 0 0 1 0 0.25 0.18 0.18 0 0 1 -0.06 0.032 0.225 0.225 0 0 1 -0.069 0.01 0.225 0.225 0 0 1 -0.069 -0.01 0.202 0.202 0 0 1 -0.06 -0.032 0.18 0.18 0 0 1 -0.043 -0.053 0.157 0.157 0 0 1 -0.017 -0.072m0.021 1.128v-0.883h0.335v0.883Z"/><path class="cls-1" d="m8.081 15.468 0.097 0.29 0.09 -0.291 0.097 -0.25h0.354l-0.37 0.903h-0.333l-0.386 -0.903h0.355Z"/><path class="cls-1" d="M8.792 14.986a0.157 0.157 0 0 1 0.017 -0.072 0.18 0.18 0 0 1 0.043 -0.053 0.18 0.18 0 0 1 0.06 -0.032 0.225 0.225 0 0 1 0.069 -0.011 0.225 0.225 0 0 1 0.069 0.011 0.18 0.18 0 0 1 0.06 0.032 0.162 0.162 0 0 1 0 0.25 0.18 0.18 0 0 1 -0.06 0.032 0.225 0.225 0 0 1 -0.069 0.01 0.225 0.225 0 0 1 -0.069 -0.01 0.18 0.18 0 0 1 -0.06 -0.032 0.18 0.18 0 0 1 -0.043 -0.053 0.157 0.157 0 0 1 -0.017 -0.072m0.021 1.128v-0.883h0.335v0.883Z"/><path class="cls-1" d="m9.684 15.468 0.097 0.291 0.09 -0.291 0.097 -0.25h0.354l-0.37 0.903h-0.333l-0.386 -0.903h0.355Z"/><path class="cls-1" d="M10.864 15.196a0.607 0.607 0 0 1 0.217 0.038 0.427 0.427 0 0 1 0.164 0.11 0.382 0.382 0 0 1 0.089 0.177 0.562 0.562 0 0 1 -0.004 0.239h-0.628a0.112 0.112 0 0 0 0.031 0.051 0.18 0.18 0 0 0 0.051 0.035 0.27 0.27 0 0 0 0.06 0.021 0.247 0.247 0 0 0 0.059 0.007 0.382 0.382 0 0 0 0.13 -0.02 0.337 0.337 0 0 0 0.099 -0.053l0.164 0.183a0.517 0.517 0 0 1 -0.187 0.114 0.674 0.674 0 0 1 -0.221 0.035 0.764 0.764 0 0 1 -0.201 -0.027 0.45 0.45 0 0 1 -0.166 -0.084 0.405 0.405 0 0 1 -0.114 -0.145 0.494 0.494 0 0 1 -0.042 -0.21 0.472 0.472 0 0 1 0.044 -0.212 0.427 0.427 0 0 1 0.114 -0.147 0.472 0.472 0 0 1 0.16 -0.086 0.607 0.607 0 0 1 0.182 -0.028m0.166 0.351a0.09 0.09 0 0 0 -0.025 -0.06 0.148 0.148 0 0 0 -0.058 -0.038 0.225 0.225 0 0 0 -0.076 -0.012 0.247 0.247 0 0 0 -0.076 0.011 0.157 0.157 0 0 0 -0.061 0.036 0.101 0.101 0 0 0 -0.032 0.062Z"/><path class="cls-1" d="m12.993 15.357 -0.326 0.386h-0.064l-0.317 -0.383v0.755h-0.356v-1.271h0.375l0.335 0.43 0.333 -0.43h0.375v1.271h-0.356Z"/><path class="cls-1" d="M14.025 15.196a0.607 0.607 0 0 1 0.217 0.038 0.427 0.427 0 0 1 0.164 0.11 0.382 0.382 0 0 1 0.089 0.177 0.562 0.562 0 0 1 -0.004 0.239h-0.626a0.112 0.112 0 0 0 0.031 0.051 0.225 0.225 0 0 0 0.051 0.035 0.27 0.27 0 0 0 0.06 0.021 0.247 0.247 0 0 0 0.059 0.007 0.382 0.382 0 0 0 0.13 -0.02 0.337 0.337 0 0 0 0.099 -0.053l0.164 0.183a0.517 0.517 0 0 1 -0.189 0.114 0.674 0.674 0 0 1 -0.221 0.035 0.764 0.764 0 0 1 -0.201 -0.027 0.472 0.472 0 0 1 -0.167 -0.084 0.405 0.405 0 0 1 -0.114 -0.145 0.494 0.494 0 0 1 -0.041 -0.21 0.472 0.472 0 0 1 0.044 -0.212 0.45 0.45 0 0 1 0.114 -0.147 0.472 0.472 0 0 1 0.16 -0.086 0.607 0.607 0 0 1 0.183 -0.028m0.166 0.351a0.09 0.09 0 0 0 -0.025 -0.06 0.146 0.146 0 0 0 -0.057 -0.038 0.225 0.225 0 0 0 -0.076 -0.012 0.247 0.247 0 0 0 -0.076 0.011 0.166 0.166 0 0 0 -0.062 0.036 0.103 0.103 0 0 0 -0.032 0.062Z"/><path class="cls-1" d="M15.283 14.843h0.335v1.271h-0.298l-0.014 -0.097a0.315 0.315 0 0 1 -0.14 0.092 0.45 0.45 0 0 1 -0.156 0.021q-0.199 -0.012 -0.305 -0.131c-0.106 -0.119 -0.106 -0.189 -0.106 -0.332a0.562 0.562 0 0 1 0.031 -0.189 0.427 0.427 0 0 1 0.088 -0.149 0.393 0.393 0 0 1 0.138 -0.097 0.45 0.45 0 0 1 0.179 -0.034 0.405 0.405 0 0 1 0.151 0.025 0.236 0.236 0 0 1 0.098 0.07Zm-0.173 0.624a0.175 0.175 0 0 0 -0.128 0.052 0.2 0.2 0 0 0 -0.052 0.147 0.191 0.191 0 0 0 0.052 0.145 0.175 0.175 0 0 0 0.128 0.05 0.171 0.171 0 0 0 0.076 -0.016 0.18 0.18 0 0 0 0.092 -0.102 0.202 0.202 0 0 0 0.013 -0.069 0.27 0.27 0 0 0 -0.011 -0.078 0.202 0.202 0 0 0 -0.034 -0.067 0.166 0.166 0 0 0 -0.056 -0.046 0.169 0.169 0 0 0 -0.078 -0.017"/><path class="cls-1" d="M15.793 14.986a0.157 0.157 0 0 1 0.017 -0.072 0.18 0.18 0 0 1 0.043 -0.053 0.18 0.18 0 0 1 0.06 -0.032 0.225 0.225 0 0 1 0.069 -0.011 0.225 0.225 0 0 1 0.069 0.011 0.18 0.18 0 0 1 0.06 0.032 0.162 0.162 0 0 1 0 0.25 0.18 0.18 0 0 1 -0.06 0.032 0.225 0.225 0 0 1 -0.069 0.01 0.225 0.225 0 0 1 -0.069 -0.01 0.18 0.18 0 0 1 -0.06 -0.032 0.18 0.18 0 0 1 -0.043 -0.053 0.157 0.157 0 0 1 -0.017 -0.072m0.021 1.128v-0.883h0.335v0.883Z"/><path class="cls-1" d="M16.956 16.115v-0.495a0.202 0.202 0 0 0 -0.011 -0.07 0.121 0.121 0 0 0 -0.028 -0.046 0.112 0.112 0 0 0 -0.04 -0.026 0.135 0.135 0 0 0 -0.046 -0.008 0.157 0.157 0 0 0 -0.108 0.042 0.166 0.166 0 0 0 -0.047 0.13V16.115h-0.329v-0.897h0.296l0.014 0.099a0.315 0.315 0 0 1 0.135 -0.094 0.405 0.405 0 0 1 0.147 -0.026 0.45 0.45 0 0 1 0.135 0.021 0.27 0.27 0 0 1 0.112 0.07 0.337 0.337 0 0 1 0.076 0.129 0.607 0.607 0 0 1 0.028 0.201v0.497Z"/><path class="cls-1" d="M17.52 15.776a0.674 0.674 0 0 0 0.099 0.053 0.562 0.562 0 0 0 0.086 0.029 0.45 0.45 0 0 0 0.073 0.013q0.033 0.004 0.062 0.005 0.09 0 0.09 -0.044c0 -0.044 -0.031 -0.043 -0.093 -0.048a0.674 0.674 0 0 1 -0.134 -0.018 0.405 0.405 0 0 1 -0.125 -0.05 0.292 0.292 0 0 1 -0.092 -0.09 0.247 0.247 0 0 1 -0.036 -0.137 0.256 0.256 0 0 1 0.035 -0.138 0.27 0.27 0 0 1 0.093 -0.091 0.45 0.45 0 0 1 0.132 -0.05 0.719 0.719 0 0 1 0.154 -0.016 0.697 0.697 0 0 1 0.205 0.031 0.517 0.517 0 0 1 0.161 0.08l-0.141 0.199a0.337 0.337 0 0 0 -0.104 -0.038 0.539 0.539 0 0 0 -0.122 -0.015 0.157 0.157 0 0 0 -0.058 0.009 0.035 0.035 0 0 0 -0.021 0.036 0.04 0.04 0 0 0 0.013 0.026 0.079 0.079 0 0 0 0.055 0.016 1.124 1.124 0 0 1 0.144 0.017 0.45 0.45 0 0 1 0.133 0.046 0.281 0.281 0 0 1 0.098 0.089 0.254 0.254 0 0 1 0.038 0.145 0.263 0.263 0 0 1 -0.127 0.237 0.405 0.405 0 0 1 -0.134 0.052 0.764 0.764 0 0 1 -0.157 0.016 0.899 0.899 0 0 1 -0.119 -0.008 0.899 0.899 0 0 1 -0.118 -0.023 0.764 0.764 0 0 1 -0.108 -0.038 0.494 0.494 0 0 1 -0.089 -0.05Z"/><path class="cls-1" d="M18.382 14.986a0.148 0.148 0 0 1 0.017 -0.072 0.157 0.157 0 0 1 0.043 -0.053 0.18 0.18 0 0 1 0.06 -0.032 0.225 0.225 0 0 1 0.069 -0.011 0.225 0.225 0 0 1 0.069 0.011 0.18 0.18 0 0 1 0.06 0.032 0.157 0.157 0 0 1 0.042 0.053 0.157 0.157 0 0 1 0.016 0.072 0.157 0.157 0 0 1 -0.016 0.072 0.157 0.157 0 0 1 -0.042 0.053 0.18 0.18 0 0 1 -0.06 0.032 0.225 0.225 0 0 1 -0.069 0.01 0.225 0.225 0 0 1 -0.069 -0.01 0.18 0.18 0 0 1 -0.06 -0.032 0.157 0.157 0 0 1 -0.043 -0.053 0.157 0.157 0 0 1 -0.017 -0.072m0.021 1.128v-0.883h0.335v0.883Z"/><path class="cls-1" d="M19.212 16.178a0.202 0.202 0 0 0 0.013 0.085 0.135 0.135 0 0 0 0.038 0.053 0.135 0.135 0 0 0 0.055 0.027 0.315 0.315 0 0 0 0.065 0.007 0.211 0.211 0 0 0 0.116 -0.031 0.108 0.108 0 0 0 0.05 -0.097 0.117 0.117 0 0 0 -0.036 -0.085 0.18 0.18 0 0 0 -0.127 -0.035 0.652 0.652 0 0 1 -0.205 -0.031 0.45 0.45 0 0 1 -0.158 -0.091 0.405 0.405 0 0 1 -0.1 -0.143 0.472 0.472 0 0 1 -0.036 -0.189 0.45 0.45 0 0 1 0.038 -0.189 0.427 0.427 0 0 1 0.106 -0.145 0.472 0.472 0 0 1 0.159 -0.092 0.584 0.584 0 0 1 0.196 -0.032 0.539 0.539 0 0 1 0.185 0.034q0.025 -0.03 0.049 -0.062c0.024 -0.032 0.033 -0.042 0.048 -0.062l0.241 0.173 -0.116 0.138a0.337 0.337 0 0 1 0.069 0.119 0.36 0.36 0 0 1 0.016 0.123 0.36 0.36 0 0 1 -0.043 0.164 0.382 0.382 0 0 1 -0.121 0.134 0.405 0.405 0 0 1 0.097 0.076 0.337 0.337 0 0 1 0.053 0.076 0.247 0.247 0 0 1 0.022 0.068 0.45 0.45 0 0 1 0.004 0.05 0.369 0.369 0 0 1 -0.043 0.185 0.36 0.36 0 0 1 -0.114 0.123 0.494 0.494 0 0 1 -0.163 0.069 0.832 0.832 0 0 1 -0.187 0.021 0.697 0.697 0 0 1 -0.213 -0.03 0.405 0.405 0 0 1 -0.155 -0.086 0.337 0.337 0 0 1 -0.092 -0.138 0.45 0.45 0 0 1 -0.023 -0.186Zm0.173 -0.716a0.175 0.175 0 0 0 -0.125 0.047 0.18 0.18 0 0 0 -0.049 0.138 0.169 0.169 0 0 0 0.049 0.129 0.175 0.175 0 0 0 0.125 0.047 0.202 0.202 0 0 0 0.065 -0.011 0.157 0.157 0 0 0 0.054 -0.032 0.157 0.157 0 0 0 0.038 -0.055 0.202 0.202 0 0 0 0.014 -0.08 0.202 0.202 0 0 0 -0.013 -0.071 0.18 0.18 0 0 0 -0.035 -0.059 0.18 0.18 0 0 0 -0.053 -0.04 0.157 0.157 0 0 0 -0.069 -0.015"/><path class="cls-1" d="M20.388 14.843v0.471a0.292 0.292 0 0 1 0.104 -0.089 0.315 0.315 0 0 1 0.136 -0.027 0.36 0.36 0 0 1 0.13 0.024 0.315 0.315 0 0 1 0.114 0.074 0.36 0.36 0 0 1 0.08 0.129 0.562 0.562 0 0 1 0.03 0.192v0.497h-0.333v-0.495a0.139 0.139 0 0 0 -0.038 -0.105 0.13 0.13 0 0 0 -0.085 -0.027 0.146 0.146 0 0 0 -0.093 0.036 0.148 0.148 0 0 0 -0.046 0.117v0.474H20.05v-1.271Z"/><path class="cls-1" d="M21.574 14.962v0.259h0.203v0.257h-0.205v0.293a0.09 0.09 0 0 0 0.027 0.068 0.097 0.097 0 0 0 0.064 0.02 0.18 0.18 0 0 0 0.051 -0.008 0.135 0.135 0 0 0 0.046 -0.024l0.074 0.247a0.427 0.427 0 0 1 -0.124 0.047 0.674 0.674 0 0 1 -0.135 0.013 0.45 0.45 0 0 1 -0.128 -0.017 0.247 0.247 0 0 1 -0.107 -0.059 0.292 0.292 0 0 1 -0.072 -0.114 0.472 0.472 0 0 1 -0.025 -0.175V15.477h-0.144v-0.257h0.143v-0.219Z"/><path class="cls-2" d="M3.883 16.511v0.555H3.843v-0.272h-0.321v0.272h-0.038v-0.555h0.038v0.247h0.321v-0.247Z"/><path class="cls-2" d="M4.366 17.031v0.035h-0.337v-0.555h0.332v0.035h-0.292v0.212h0.268v0.035h-0.268v0.237Z"/><path class="cls-2" d="M4.766 16.885h-0.249l-0.069 0.181h-0.04l0.209 -0.555h0.047l0.21 0.555h-0.038Zm-0.013 -0.033 -0.114 -0.296 -0.114 0.296Z"/><path class="cls-2" d="M5.29 17.03v0.038H4.958v-0.557h0.038v0.519Z"/><path class="cls-2" d="M5.622 16.547h-0.181v0.519h-0.038v-0.519h-0.18v-0.036h0.401Z"/><path class="cls-2" d="M6.106 16.511v0.555h-0.038v-0.272h-0.321v0.272h-0.038v-0.555h0.038v0.247h0.321v-0.247Z"/><path class="cls-2" d="M6.218 16.789c0 -0.168 0.116 -0.286 0.27 -0.286a0.246 0.246 0 0 1 0.245 0.173l-0.038 0.016a0.208 0.208 0 0 0 -0.208 -0.151c-0.13 0 -0.229 0.101 -0.229 0.248s0.099 0.248 0.233 0.248a0.205 0.205 0 0 0 0.204 -0.151l0.038 0.016a0.24 0.24 0 0 1 -0.242 0.173c-0.158 0.001 -0.274 -0.117 -0.274 -0.285"/><path class="cls-2" d="M7.126 16.885h-0.249l-0.069 0.181h-0.04l0.209 -0.555h0.047l0.21 0.555h-0.04Zm-0.013 -0.033 -0.112 -0.296 -0.114 0.296Z"/><path class="cls-2" d="m7.468 16.807 0.218 0.259h-0.047l-0.214 -0.259h-0.066v0.259h-0.038v-0.555h0.194c0.107 0 0.173 0.06 0.173 0.148s-0.067 0.148 -0.173 0.148Zm-0.11 -0.031h0.154c0.086 0 0.134 -0.046 0.134 -0.114s-0.048 -0.114 -0.134 -0.114h-0.154Z"/><path class="cls-2" d="M8.129 17.031v0.035h-0.337v-0.555h0.332v0.035h-0.292v0.212h0.267v0.035h-0.267v0.237Z"/><path class="cls-2" d="M8.743 16.547h-0.182v0.519h-0.038v-0.519h-0.181v-0.036h0.4Z"/><path class="cls-2" d="m8.977 16.807 0.218 0.259h-0.047l-0.216 -0.259h-0.066v0.259h-0.038v-0.555h0.194c0.107 0 0.174 0.06 0.174 0.148s-0.067 0.148 -0.174 0.148Zm-0.11 -0.031h0.154c0.086 0 0.134 -0.046 0.134 -0.114s-0.048 -0.114 -0.134 -0.114h-0.154Z"/><path class="cls-2" d="M9.591 16.885h-0.249l-0.069 0.181h-0.04l0.209 -0.555h0.047l0.21 0.555h-0.038Zm-0.013 -0.033 -0.114 -0.296 -0.109 0.296Z"/><path class="cls-2" d="M9.784 16.511h0.038v0.555h-0.038Z"/><path class="cls-2" d="M10.37 16.511v0.555h-0.033l-0.328 -0.486v0.486h-0.038v-0.555h0.034l0.327 0.485v-0.485Z"/><path class="cls-2" d="M10.516 16.511h0.038v0.555h-0.038Z"/><path class="cls-2" d="M11.102 16.511v0.555h-0.033l-0.328 -0.486v0.486h-0.038v-0.555h0.034l0.324 0.485v-0.485Z"/><path class="cls-2" d="M11.485 17.075c-0.155 0 -0.27 -0.119 -0.27 -0.286s0.114 -0.286 0.27 -0.286a0.247 0.247 0 0 1 0.244 0.171l-0.038 0.016a0.208 0.208 0 0 0 -0.207 -0.149c-0.131 0 -0.227 0.101 -0.227 0.249s0.097 0.249 0.232 0.249c0.122 0 0.215 -0.086 0.227 -0.222h-0.231v-0.032h0.27c-0.002 0.175 -0.117 0.291 -0.271 0.291"/><path class="cls-2" d="M12.328 16.885h-0.249l-0.069 0.181h-0.04l0.209 -0.555h0.047l0.21 0.555h-0.04Zm-0.013 -0.033 -0.112 -0.296 -0.114 0.296Z"/><path class="cls-2" d="M12.921 16.511v0.555h-0.034l-0.327 -0.486v0.486h-0.038v-0.555h0.033l0.324 0.485v-0.485Z"/><path class="cls-2" d="M13.523 16.788c0 0.167 -0.114 0.278 -0.265 0.278h-0.189v-0.555h0.189c0.151 0 0.265 0.11 0.265 0.277m-0.04 0c0 -0.144 -0.097 -0.241 -0.225 -0.241h-0.151v0.483h0.151c0.129 0 0.228 -0.095 0.228 -0.242Z"/><path class="cls-2" d="M13.797 16.789c0 -0.168 0.116 -0.286 0.27 -0.286a0.246 0.246 0 0 1 0.245 0.173l-0.038 0.016a0.208 0.208 0 0 0 -0.208 -0.151c-0.13 0 -0.229 0.101 -0.229 0.248s0.099 0.248 0.232 0.248c0.105 0 0.17 -0.056 0.205 -0.151l0.038 0.016a0.24 0.24 0 0 1 -0.242 0.173c-0.158 0.001 -0.274 -0.117 -0.274 -0.285"/><path class="cls-2" d="M14.377 16.789c0 -0.167 0.117 -0.286 0.275 -0.286a0.286 0.286 0 1 1 -0.275 0.286m0.509 0c0 -0.146 -0.1 -0.248 -0.234 -0.248s-0.234 0.102 -0.234 0.248 0.099 0.248 0.234 0.248 0.235 -0.102 0.235 -0.248Z"/><path class="cls-2" d="m15.528 17.066 -0.032 -0.492 -0.185 0.469h-0.034l-0.185 -0.469 -0.032 0.492h-0.038l0.035 -0.555h0.044l0.192 0.484 0.192 -0.484h0.044l0.036 0.555Z"/><path class="cls-2" d="M16.061 16.667c0 0.094 -0.067 0.154 -0.173 0.154h-0.155v0.247h-0.038v-0.556h0.194c0.107 0 0.172 0.06 0.172 0.156m-0.038 0c0 -0.071 -0.048 -0.119 -0.134 -0.119h-0.154v0.237h0.154c0.085 -0.002 0.134 -0.049 0.134 -0.118"/><path class="cls-2" d="M16.493 17.03v0.038h-0.332v-0.557h0.038v0.519Z"/><path class="cls-2" d="M16.577 16.511h0.038v0.555h-0.038Z"/><path class="cls-2" d="M17.058 16.885h-0.249l-0.069 0.181h-0.04l0.209 -0.555h0.047l0.21 0.555h-0.04Zm-0.013 -0.033 -0.113 -0.296 -0.114 0.296Z"/><path class="cls-2" d="M17.652 16.511v0.555h-0.034l-0.327 -0.486v0.486h-0.038v-0.555h0.033l0.327 0.485v-0.485Z"/><path class="cls-2" d="M17.763 16.789c0 -0.168 0.117 -0.286 0.271 -0.286a0.247 0.247 0 0 1 0.245 0.173l-0.038 0.016a0.208 0.208 0 0 0 -0.208 -0.151c-0.13 0 -0.229 0.101 -0.229 0.248s0.099 0.248 0.233 0.248a0.205 0.205 0 0 0 0.204 -0.151l0.038 0.016a0.241 0.241 0 0 1 -0.242 0.173c-0.157 0.001 -0.274 -0.117 -0.274 -0.285"/><path class="cls-2" d="M18.714 17.031v0.035h-0.337v-0.555h0.332v0.035H18.416v0.212h0.268v0.035H18.416v0.237Z"/></svg>