<svg xmlns="http://www.w3.org/2000/svg" viewBox="0 0 2500 2500"><defs><style>.cls-1{fill:#1321f1;}</style></defs><g id="Illustration"><path class="cls-1" d="M931.94,1141.18v14c0,169.42-.26,338.84.24,508.25.09,28.46-7.88,50.45-35.65,63.38H910.2c41.15,0,82.3.23,123.45-.18,8.77-.09,12.44,1.67,12,11.39-.78,18.79-.7,37.66,0,56.46.34,9.32-2.75,11.72-11.85,11.64-47.71-.43-95.43-.2-143.15-.2-88,0-176-.15-264,.21-9.68,0-13-2.22-12.51-12.31.86-18.35.9-36.79,0-55.14-.51-10.38,3.3-12.22,12.69-12.08,35,.52,70,.21,105.06.21h12.54c-27.35-13-35.62-34.83-35.54-63.24.48-175.55.24-351.09.25-526.64v-13.81c-12.66,21.4-17.53,44.7-21.1,68.21-8.31,54.73-9.27,109.8-6.3,165,.42,7.86,1,15.77.69,23.61A32.64,32.64,0,0,1,651,1411c-17.05.38-32.74-11.9-33.73-28.62-4.83-81-5.54-162,13.63-241.57,8.45-35.1,21.85-68.43,47.91-94.92,18.9-19.2,41.19-30,69-29.63,47.27.64,94.57.94,141.83-.06,34.37-.72,60.81,13,82,38.86,1.87,2.28,3.91,4.41,8.41,9.46v-18q0-208.17-.22-416.33c0-11,1.87-14.76,14.16-14.74q439.29.62,878.6,0c11.39,0,13.33,3.45,13.31,13.94q-.46,315.86,0,631.71c0,11.39-2.49,14.53-14.28,14.52q-438-.54-876,0c-12.57,0-16.37-3-15.93-15.83,1-29.29.15-58.65.43-88,.07-7.47-1-11.09-10.05-9.84C953,1164.39,942.07,1154.89,931.94,1141.18Zm89.39-119c14.76-15.13,25.91-28.78,39.29-39.68,15.37-12.54,22.41-27,19.18-46.46-1.71-10.3,2.36-13.26,12.82-13.19,65.22.49,130.44.25,195.66.25,27.5,0,27.63,0,27.45,26.88-.13,20.73,2.92,18-18.08,18-44.65.15-89.29-.06-133.94.1-4.51,0-11.62-2.68-10.94,6.55,1.07,14.49-6.47,24.76-16.1,34.34-36,35.81-71.7,71.89-107.79,107.59-5.66,5.61-8.61,11.1-8.47,19.36.48,29.32.68,58.67-.08,88-.27,10.31,3.26,11.94,12.6,11.93q399.85-.36,799.72.08c11.33,0,13.53-3.58,13.51-14.1q-.47-275.11,0-550.22c0-11.3-2.48-14.7-14.36-14.68q-398.55.52-797.09,0c-11.73,0-14.43,3.27-14.39,14.61.4,111.61.21,223.23.22,334.85C1020.56,1010.22,1020.93,1014.1,1021.33,1022.15ZM866.08,1726.31C835,1706.89,830,1697.76,830,1661v-6.56q0-139.7,0-279.38c0-7.26,1-13.57-10.19-13.32s-8.67,7.4-8.67,13.39c-.1,95.32-.53,190.63.18,285.94.22,29-6.56,52.5-40,65.27Z"/><path class="cls-1" d="M1265.94,1884.33c-51.22,0-102.44-.2-153.65.19-8.92.07-12.38-2-11.91-11.51,1.07-21.4-.27-43,1.85-64.26,6.46-64.84,55.16-112.57,119.76-116.56a698.4,698.4,0,0,1,91.84.14c67.06,4.7,117.31,58.2,119.58,125.35.62,18.37-.28,36.79.44,55.15.36,9.16-2.31,11.8-11.63,11.72C1370.13,1884.09,1318,1884.33,1265.94,1884.33Z"/><path class="cls-1" d="M1658.47,1884.33c-51.19,0-102.38-.21-153.57.19-9.09.07-12.24-2.43-11.89-11.69.71-19.23-.32-38.53.68-57.73,3.48-67.19,53.29-119.34,120.24-122.79,37.82-1.94,76.23-5,113.79,3.14,53.44,11.66,95.65,63.12,97.54,117.76.69,20.1-.09,40.25.57,60.36.29,8.75-2.69,11-11.17,10.94C1762.6,1884.15,1710.54,1884.33,1658.47,1884.33Z"/><path class="cls-1" d="M1266.58,1492.67c49.17-.58,90.24,39.88,90.9,89.57.64,49.08-39.68,90.38-89.29,91.45-48.11,1-91.1-40.92-91.67-89.46C1175.92,1533.84,1215.82,1493.28,1266.58,1492.67Z"/><path class="cls-1" d="M818.32,803.78c49.17-.59,90.24,39.88,90.89,89.56.65,49.09-39.67,90.39-89.28,91.45-48.12,1-91.1-40.91-91.68-89.45C727.66,845,767.56,804.39,818.32,803.78Z"/><path class="cls-1" d="M1750.14,1584.51c-.72,49.27-43,90.53-91.45,89.22-50.12-1.36-89.87-42.11-89.27-91.5.63-51.1,41.53-90.29,93.47-89.55C1711.11,1493.36,1750.86,1535.2,1750.14,1584.51Z"/><path class="cls-1" d="M1786,865.14c-.94,30.18,2.69,67.1-1.83,103.65-8.05,65.19-40.26,116.54-93,155.14-27.91,20.41-56.15,40.35-84.12,60.66-5.08,3.7-9.16,5.21-15.06.8-34-25.43-70.09-48-102.52-75.45-46.67-39.44-73-90.11-76.64-151.25-4-67.33-.79-134.8-1.76-202.19-.12-7.9,2.09-10.62,10.51-10.07,61,4,118.23-8.83,171.07-39.95,4.8-2.83,8.56-2.31,13.27.41q78.93,45.45,169.9,39.51c8.39-.55,10.47,1.6,10.38,9.74C1785.77,790.28,1786,824.43,1786,865.14Zm-55.72,3.8a19.29,19.29,0,0,0-11.44-15.59c-11.61-5.32-19.85,1-27.68,8.84-41.37,41.52-83,82.78-124.15,124.53-6.47,6.57-9.83,6.64-16.17-.11-16.16-17.2-33-33.81-50-50.13-8.83-8.44-20.51-7.85-28.17.11-7.21,7.5-7.49,18.64.73,27.08q34.77,35.73,70.41,70.6c10.41,10.14,19.69,10.13,30-.09q75-74.4,149.44-149.33A22.91,22.91,0,0,0,1730.28,868.94Z"/><path class="cls-1" d="M1197.11,817.37c-35.39,0-70.78-.22-106.16.15-8.39.09-11.25-2.29-11.36-11-.44-34.37-.75-34.37,33.93-34.36,62.91,0,125.82.25,188.72-.25,11-.08,14,3.08,13.81,13.91-.57,31.59-.11,31.6-31.13,31.6Z"/><path class="cls-1" d="M1198.88,1074.26c34.52,0,69,.26,103.57-.17,9.47-.11,13.83,1.43,13.63,12.65-.57,32.75,0,32.76-32.61,32.76-63.36,0-126.73-.25-190.09.24-10.94.08-14.07-3-13.83-14,.7-31.5.22-31.52,31.49-31.52Z"/></g></svg>